<svg version="1" xmlns="http://www.w3.org/2000/svg" width="1706.667" height="1058.667" viewBox="0 0 1280 794"><path d="M615.9.4c-.2.2-2.9.6-5.9.9-11.4 1.2-19.1 4.7-30.1 13.6C555.1 35 535.8 47.6 517 55.8c-7.1 3.1-7.8 3.2-11.3 1.7-4.2-1.7-21.5-18.7-24.6-24-1.3-2.2-4.5-5.8-7.3-8s-6-4.8-7.3-5.9c-5.4-4.4-16.3-.8-23.8 7.9-4.8 5.5-13.3 20.8-16.2 29-.9 2.7-2.1 5.9-2.5 7-1 2.4-4.1 12.6-6.4 21-4.3 15.6-8.1 27.1-11.3 34.5-.8 1.9-1.9 4.4-2.3 5.5-.4 1.1-2.7 6-5 11-4.1 8.6-5.9 12.6-9.2 20.5-1.5 3.4-3.9 11.4-5.2 17.2-.8 3.4-2.4 3.5-5.6.5-4.6-4.3-24.2-14.8-35.5-19-3.8-1.4-11.7-3.8-17.4-5.2-13-3.3-23.3-6.6-30.8-10-13.3-6.1-19-9.2-22.1-12-6.4-5.7-13.2-10.3-23.9-16.3-12.4-6.8-12.3-6.8-22.3-8.2-17.5-2.6-23.4-.5-26.2 9.2-2.9 10.1-4 15.7-5.3 29.3-.4 3.3-1 7.6-1.5 9.5-.4 1.9-1.1 6-1.4 9-1 8.1-3.7 19-4.8 19-2.3 0-22.1-9.8-28.4-14-8.9-6-28-4.5-35.7 2.9-6 5.6-7.1 8.4-6.3 16 .4 3.7.9 9.3 1.2 12.6.3 3.3 1 7.3 1.6 9 2.3 6.6 5.6 31.8 6.8 51.5 2 32.5 3.1 41.4 6.6 55.5 2.4 9.4 5 16.9 7.9 22.7 2.4 4.8 4 9 3.5 9.3-.8.5-9-2.7-15.3-6-2.7-1.4-3.1-1.3-5.8.6-3.8 2.7-5.2 5.6-7.3 15.4-3.5 16.4-3.5 16.3-7.5 17.6-8.7 2.9-10.3 5.4-12.4 19.9-1.4 9.1-1.4 12-.2 22 .7 6.3 2 14.1 2.9 17.2 1.8 6 7.7 15.9 11.7 19.5 1.3 1.2 5.1 4.5 8.4 7.4 6.2 5.5 7.4 6.9 5.6 6.9-2.3 0-8.1 6.2-8.1 8.8 0 1.8-1.5 3.9-5.1 7.1-3.7 3.4-5.3 5.7-5.9 8.6-.9 4 .2 12 2.2 16 2.9 5.8 9.5 12.8 16.5 17.7 4.3 3.1 9.4 7.3 11.2 9.3 3.1 3.6 3.2 3.9 1.5 5.2-1 .7-2.8 1.3-4 1.3-3 0-7.2 1.9-7.8 3.6-.3.7.2 3 1 5 1.7 4.2 1.5 4.5-3.4 5.9-4.8 1.4-5.3 4.6-1.6 10 1.5 2.2 4 7.1 5.6 11l2.9 6.9-5.9 5.6c-3.2 3-6.6 6.7-7.6 8.2-1.1 1.6-2.7 2.8-4 2.8-5.2 0-24.2 5.6-36.1 10.7-11.8 5.1-20.8 8.1-35.2 11.8-12.9 3.3-18.2 5.8-29.5 14.1-4.8 3.5-8.9 9.6-10.5 15.4-1 4.1-1 4.7.8 6.5 1.7 1.7 3.2 2 9.9 2 4.4-.1 8 .2 8 .6 0 .4-2.1 1.8-4.7 3.2-5.3 2.7-6.3 4.9-3.7 7.8 5.3 5.8 25.3 7 60.2 3.4 2.3-.3 13.3-.9 24.3-1.5l20-1 8.7-3.9 8.7-4 5.5 1.5c4.1 1.1 9.7 1.4 22.3 1.1 11.6-.3 17 0 17.7.8.6.7.2 4.3-1 9.9-1.1 4.8-1.9 9.1-1.8 9.4.4 1.4-1.4 12.6-2.2 14.1-.5.9-1.1 2.8-1.4 4.3-.4 1.5-1.7 3.9-3 5.5-2.3 2.7-2.4 2.7-7.6 1.5-4.8-1.1-5.7-1-10.4 1.1-5.9 2.7-11.6 7.3-11.6 9.2 0 .8-1.6 2.9-3.7 4.8-4.1 4-4 6.7.4 6.7 4.9 0 5.5 1.1 3.7 6.4-2 5.8-1 7.6 3.1 5.8 1.4-.7 3.9-1.2 5.5-1.2 2.3 0 3 .5 3 1.9 0 1.1.3 2.2.8 2.4.4.2 5.4 0 11.2-.3 12.9-.9 18.3-3 26.1-10.5 3.1-3 6.9-5.7 8.4-6.1 2.8-.7 5.5-5.5 7-12.4.4-1.9 1.8-5.5 3.2-8 1.4-2.5 4.6-8.3 7.1-13 2.5-4.7 5.9-10.4 7.7-12.6 1.7-2.3 4.1-6.1 5.2-8.5 3.5-7 11.1-24.2 11.8-26.7.3-1.2 1.5-2.7 2.6-3.3 1.7-.9 12-3.9 13.4-3.9.3 0 1.8 2.6 3.4 5.7 1.6 3.2 3.7 6.7 4.7 7.9 2.8 3 14.3 11.3 18 12.9 1.8.7 5.9 3 9.3 5.2 3.3 2.1 8 5 10.5 6.5l4.4 2.6.7 8.9c.4 5.7 1.4 10.7 2.9 14.3 3 7 4.1 15.3 4.1 31.1 0 16.5.2 16.3-18.4 21.5-3.9 1.1-6.8 2.6-7.6 3.8-1.5 2.3-5.5 20.2-4.8 21 .3.3 2.8.2 5.5-.1 5.7-.7 6.8.2 6.8 5.4 0 4.6 2.9 5.2 8.2 1.5 5.8-3.9 12-6.1 12.5-4.5.3.7 1.2 2.2 2.2 3.4 2.1 2.7 4.3 2.1 10.3-2.6 4.7-3.8 6.6-4.3 7.4-2.1 1.2 3 3.6 2.5 8.5-1.6 5.8-4.8 11.5-12.5 12.5-16.5.4-1.5 1.1-3.3 1.6-3.9.5-.7.5-2.9-.1-5.2-1.5-6.7 2.1-44.2 4.9-51.6 1.9-5.1 3-15.3 3.2-31.3.2-15.3.1-16.3-1.9-18.5-1.2-1.3-2.5-3.9-3-5.8-.6-2.3-1.6-3.6-3.2-4-2.6-.6-17.1-16.7-17.1-19 .1-2 11.7-7.2 26.5-11.7 2.8-.8 5.5-1.8 6-2.2 1.4-1 47-15.4 57-18 2.2-.6 11.6-2.2 20.9-3.6 9.3-1.4 20.8-3.5 25.5-4.6 9.1-2.2 14.5-3.2 25.1-5.1 5.9-1 11.2-2.5 16.5-4.9 1.1-.4 4.3-1.7 7.2-2.8 5.8-2.3 6.8-1.9 9.8 3.9 1.9 3.7 13 11.6 17.5 12.5 5.5 1 14.4 5.9 15.7 8.6 1.7 3.6 4.3 22.4 4.3 30.9 0 4.8-.6 8.6-1.6 10.5-.8 1.6-1.3 3.7-1.1 4.5.2.9-.5 6.5-1.5 12.5-3.3 18.2-3.3 27.6-.3 51.4l2.8 21.2-2.8 2.9c-1.6 1.7-3.8 3.3-4.9 3.6-1.2.4-6.3 2.7-11.5 5.1-10.2 4.9-18.1 11.3-21.2 17.5-2.5 4.9-2.4 6 .6 8.8l2.5 2.4 4.3-2.2c3.1-1.5 5.3-2 7.9-1.5l3.7.5-.4 5.9c-.2 3.2-.9 6.7-1.5 7.9-.6 1.1-1 3.3-.8 4.8.4 3.5 3.8 4.1 7.5 1.4 1.6-1.1 4.8-2.3 7.3-2.7 4.4-.7 11.6-4.2 15.3-7.3 2.4-2.1 3.1-1 2.8 4.9-.3 6.5.9 8.1 5.2 6.7 1.8-.6 4.1-1.8 5.2-2.8 3.1-2.6 8.5-5.5 15-8 7.3-2.8 13-8.1 18.1-16.7 2-3.5 6.1-9.1 9-12.3l5.2-5.8-.2-13.4c-.2-12.9 1.2-23.5 4.6-35 1-3.4 1.4-3.7 6.7-4.6 3.1-.6 6.3-1.3 7.2-1.7 1.2-.5 1.8.2 2.2 2.4.6 2.7 1.1 3.1 3.8 3.1 1.8 0 5.2-1.1 7.5-2.5 2.4-1.4 6.5-2.9 9.1-3.4 8.4-1.6 10-2.7 15.1-10.3C707.5 660 711.9 645 709 631c-.6-2.5-1.4-6.5-1.9-9-2.2-11.5-7.3-17.6-24.3-29.2-6.5-4.4-12.3-8.6-12.8-9.3-1.5-1.8.9-10.9 4.3-16.7 1.4-2.4 3.9-6.8 5.6-9.9 3.8-7.1 4.7-7.8 11.2-8.3 3-.3 8.6-.8 12.4-1.1 6.9-.5 10-1.1 34.5-5.9 28.7-5.6 35.6-6.2 51.5-3.9 14.6 2.1 44.5 16.2 63.5 29.8 12.9 9.3 35.7 28.2 47.1 39.2 6.8 6.5 15.3 14.3 18.9 17.3 3.5 3 11.1 9.6 16.8 14.7 13.4 11.9 38.9 28.6 51.8 33.8 2.9 1.2 6.8 3.4 8.8 4.9 2.9 2.2 4 2.5 5.1 1.6 1-.9 3-.4 8.4 1.9 7.7 3.3 28.7 9 42.1 11.5 9.6 1.8 40.5 5.3 52.5 6 14.2.8 64.3-3.3 72.1-6 2.3-.8 6.8-1.8 10-2.3 8.8-1.4 31.8-9.5 41.4-14.6 1.4-.7 4.3-1.7 6.5-2.1 8.5-1.6 18.4-7.4 21-12.4 3.2-6.2.6-13.3-4.8-13.3-1.5 0-5.8.9-9.7 1.9-3.8 1-7.3 1.5-7.6 1.1-.4-.4 1.3-3 3.7-5.9 2.5-2.9 5.4-6.6 6.4-8.2 1.1-1.5 3.8-5.4 6-8.6 2.2-3.1 5.8-8.4 8.1-11.6 11.5-16.7 22.4-43.9 22.4-56 0-5.8-2.5-4-7.7 5.6-11.6 21.3-35.1 53.5-48.6 66.8l-5.4 5.4-.7-5.4c-1.1-8.9.1-22.6 2.2-25.6 4.1-5.8 14.4-26 15.7-30.7.8-2.7 1.5-7.7 1.7-11 .4-7.9-1.5-8-5.8-.5-6.4 11.1-13.8 22-14.9 21.7-1.3-.5-1.4-4.3-.4-10.9 1.7-10.3 1.8-15.8.2-17.3-1.9-1.9-1.8-2-4.7 1.2-1.7 1.9-3.1 5.2-4.2 10.3-.9 4.1-2.5 11.3-3.6 15.9-1 4.6-2.2 11.1-2.5 14.5-.3 3.3-1.1 7.2-1.8 8.6-1.6 3.1-29.9 31-31.4 31-1.4 0-1.4-1.2-.1-10.3 2-14 3.3-20.2 4.6-22.9.8-1.5 1.4-3.6 1.4-4.6 0-1.1 2.4-5.1 5.3-8.8 13.7-17.6 20.8-28.8 22.2-35.1 1.1-5.5-1.5-4-12.3 6.7-5.5 5.5-10.8 10-11.7 10-1.9 0-1.9.9.1-15.6.5-4.3.4-5.2-1.1-5.8-3.5-1.3-8.7 5.5-9.8 12.9-.4 2.2-2.3 9-4.4 15.2-3.4 10.4-4.2 11.7-9.3 16.7-5.4 5.4-36.7 29.6-38.2 29.6-1.7 0-.7-9.1 1.8-16.1 2.5-7 3.3-8.1 15.2-19.9 19.2-19 29.2-32 29.2-37.6 0-1.3.5-2.6 1-2.9 1.2-.7 1.3-3.5.2-3.5-.5 0-5.3 4.3-10.8 9.6-10.7 10.3-20.6 18.4-22.4 18.4-1.2 0-.8-4.6 1-12 3.5-14.1 5.1-22.1 4.8-24.1-.4-2.3-.5-2.3-4.3 1.7-3.6 3.6-8.6 12.6-14.3 25.4-3.7 8.2-10.2 24.8-10.2 25.8 0 .6-2.8 2.8-6.2 4.8-3.5 2.1-8.3 5.2-10.8 7-10.1 7.1-22 13.1-22 11.1 0-1.6 4.4-24.3 5.9-30.4 3.5-14.5 9.1-35.3 10.1-37.5.6-1.3 2.1-6.7 3.5-12.1 1.3-5.4 3.1-11.1 3.9-12.7 1.3-2.7 1.3-3-.5-3.5-2.6-.9-8.2 3.4-11.5 8.7-2.3 3.6-12.4 24.3-12.4 25.4 0 .2-1.8 4.1-3.9 8.7-8.4 17.6-13.4 31.1-17.7 47.2-1.4 5.5-2.9 10.4-3.4 10.8-1.5 1.6-36.4-32.9-45.8-45.3-2.4-3-6.7-8.4-9.7-12-3-3.6-6.3-8.1-7.3-10-.9-1.9-5.7-10.1-10.5-18.2s-8.7-15-8.7-15.3c0-.4-.8-1.9-1.9-3.3-1-1.5-3.6-6.1-5.6-10.2-2.1-4.1-6-11.3-8.6-16-6-11-20.9-39.7-27.1-52.3-2.7-5.5-6.2-11.8-7.8-14.2-3.5-5.1-3.7-7.1-1.1-9.9 2.1-2.4 8.9-21.7 9.7-27.9.5-3.6.2-4.5-1.8-6.4-1.4-1.3-4.7-2.7-7.8-3.3-2.9-.6-5.6-1.2-5.8-1.5-.3-.2 1.2-2.3 3.2-4.5s3.6-4.8 3.6-5.8c0-1.9-5.6-5.2-9-5.2-2.5 0-5-1-5-2.1 0-.5.6-.9 1.3-.9 2.5 0 19.3-9.2 22.5-12.3 1.9-1.8 5.6-6 8.4-9.5 2.7-3.4 5.6-6.2 6.4-6.2.9 0 1.4-1.1 1.4-3 0-1.7 1.3-5.6 2.9-8.8 5-10.1 6.2-20 2.8-24.1-1-1.2-16.7-9.1-18.1-9.1-.7 0-27.4-11.5-35.6-15.3-10.7-5-22-9.7-23.4-9.7-.6 0-2.1-.7-3.3-1.5-1.8-1.3-2-1.9-1.1-6.2 1.2-6.2 0-19.9-1.9-21.8-2.7-2.8-20-5.6-34.4-5.6-4.1-.1-8.1-.4-8.8-.9-1.1-.6-1.2-3.7-.2-16.6 1.2-17.1 1.4-18.1 7.3-38.4 6.5-22.3 7.6-27.5 7.8-36.1.4-15-2.6-23.4-8.6-24.5-6.5-1.2-14.7.3-31.4 5.9-20.6 6.9-35.5 10.7-42.3 10.7h-5.2l-2.4-5.2c-1.3-2.9-2.8-6.6-3.2-8.3-4-15-5.4-18.4-8.4-19.9-1.6-.9-3.8-2.1-4.7-2.8-1.3-1-2.9-1-7.4 0-8.3 1.7-12.9 4.2-29.7 16.5-23.4 17-28.7 20.7-29.3 20.7-.4 0-3.4 1.9-6.8 4.3-8.8 6.3-8.5 6.2-9.7 3-.6-1.5-2.6-10.5-4.6-19.8-3.2-15.7-3.5-18.5-3.7-36-.1-19.6.7-35.1 2.5-46.6 1.9-12.3-2-24.7-8.7-27.8-2.4-1-7.6-1.5-8.5-.7zm5.3 6.7c5.9 2.8 8.9 14.1 6.7 24.9-2.9 14-3.4 61.4-.8 71.5 1.7 6.7 1.8 10.8.4 20.2-1.4 9.2-3.5 42.5-3.8 60.9-.2 7.8 1.2 12.2 3.3 10.9.5-.3.9-6 .9-12.8.1-19.3 1.2-46.8 1.9-51.1 1-5.7 2.8-5.6 4.1.4.9 4.2.8 5.5-.5 7.5-1.4 2.2-1.4 2.4.4 3.4 1.7.9 2.1 2.6 2.7 11.8 1 16.4-2.1 37.8-6.2 42.5-1.3 1.4-1.2 1.9.3 4.3 1.3 2 2.3 2.5 3.8 2 1.2-.4 5.8-1 10.3-1.5 4.5-.4 9.1-1.1 10.3-1.5 1.4-.4 2.8-.1 4 1 1 .9 2.6 1.5 3.6 1.3 2-.4 5.2-5.4 5.3-8.4.1-2.2 5.4-15.8 7-17.8.4-.6 1.5-3.3 2.4-6 .9-2.7 2.8-6.4 4.3-8.3 2.5-3.3 2.6-6.8.1-6.1-1.2.4-4.1 5.8-12.5 23.2-2.6 5.5-5.3 10.1-5.9 10.4-2.6.8-1.2-4.7 3.2-13.6 2.5-4.9 4.5-9.7 4.5-10.7 0-2.8-2.4-1.1-4.9 3.6-4.5 8.4-5.2 9.3-6.2 7.8-.5-.8-.9-2.8-.9-4.5 0-3.7 7.3-13.6 12.8-17.3 2-1.3 5.6-4.1 8-6.2 8.3-7.2 28.5-13.7 54.2-17.3 13.4-1.9 44.5-9.3 47.6-11.3 1.2-.7 5.5-2.3 9.5-3.4 4.1-1.1 9.3-2.7 11.7-3.5 5.6-1.8 12.2-1.8 15 .2 2.5 1.7 2.9 3.9.8 4.7-.7.3-4 5-7.4 10.4-3.3 5.4-10.3 15.9-15.4 23.3-13.7 19.8-17.7 26.2-25 39.5-8.3 15-23.8 46.4-23.8 48 0 .7.7 1.8 1.5 2.5 2.2 1.8 4.1-.2 4.9-4.9.5-3.5 6.8-16.5 21.3-44 3-5.8 8.8-15.5 12.8-21.5 32.9-50.3 32.3-49.5 34.5-48.1 1.9 1.2 1.2 13.2-1.1 17.8-2.7 5.3-12.5 21.1-16 25.7-16.4 21.7-44.5 68.9-46.4 77.7-.5 2.7-1 3.2-2.8 2.8-1.2-.3-7.8-1.8-14.6-3.5-6.8-1.6-13.2-3-14.2-3-2.8 0-2.3 1.6.9 2.8 2.8 1.1 20.9 5.9 27.2 7.1 1.9.4 4.5 1.3 5.8 2 1.2.6 2.7.9 3.2.6 1.5-.9 1.2-3.2-.5-3.8-1.1-.5-.8-2.1 1.9-9.1 1.9-4.7 4.6-10.6 6.1-13.3 1.6-2.6 4.7-8.2 7-12.4 2.3-4.2 7.1-12.1 10.7-17.5 3.6-5.5 10.8-16.5 16.2-24.6 12.1-18.5 13.3-19.5 9.7-8.2-1 3.3-2.2 7.3-2.5 9.1-.4 1.8-2.3 5.2-4.2 7.7-1.9 2.5-3.4 4.9-3.4 5.4s-1.7 3.6-3.8 6.8c-2.2 3.3-8.3 14-13.7 23.9-5.4 9.9-11.3 20.4-13.2 23.2-3.7 6.1-4.7 9.2-3.4 11.2.8 1.2 1.2 1.2 2.5.2.9-.8 1.6-1.7 1.6-2.1 0-.4 2.8-5.9 6.3-12.1 3.5-6.3 9.6-17.5 13.6-25 3.9-7.5 8.5-15.1 10.2-17l3-3.4-.7 9c-.4 6-1.1 9.3-2 9.8-.8.4-1.4 1.2-1.4 1.8 0 2-12.9 24.8-22.2 39.1-2.2 3.5-2.9 5.4-2.4 7.3.9 3.7 3.5 3.1 5.2-1.3.9-2 5-9.9 9.2-17.5 6.2-11.1 8.1-13.7 9.7-13.5 1.7.3 2 1.2 2.3 5.8.3 5.4.2 5.7-7.6 17-4.4 6.3-8.9 12.3-10 13.3-2 1.8-2.2 1.8-7.4-.1-2.9-1.1-12.5-4.1-21.3-6.8-13.1-3.9-17.5-4.8-24-4.8-6.7-.1-8 .2-8.3 1.6-.3 1.4.3 1.6 3 1.2 3.4-.6 7.5.3 26.8 5.4 14.1 3.8 25.6 7.7 28.6 9.7 4.3 2.8 10.1 1.3 7.5-1.8-.7-1 .3-3.4 4-9 2.7-4.2 5.4-7.7 5.9-7.7 1.4 0 1.4.1-3 9.4-2.2 4.6-4 8.9-4 9.4 0 .6 2 2.2 4.5 3.7 4.3 2.5 8.3 7 7.3 8.1-.3.2-5.4-1.3-11.4-3.5-30.8-11.3-49.4-14.9-49.4-9.7 0 1 1.3 1.4 4.4 1.4 11.6 0 56.9 14.9 67.7 22.2 5.4 3.6 7 3.7 8.9.6.8-1.4 4.2-4.7 7.6-7.3 3.3-2.6 8.4-6.7 11.3-9.1 8.9-7.1 16.9-11.4 20.2-10.7 1.6.4 3.1 1 3.4 1.5.3.4-2.3 2.7-5.7 5.1-21.2 14.3-36.2 25.6-37.2 28.1l-1.2 2.7-7.4-3.8c-16.9-8.4-37-16-53.2-20.2-8.7-2.2-19.9-2.2-22-.1-1.9 1.9.3 3.3 3.8 2.3 3.8-1.1 11.3 0 23.7 3.3 14.1 3.7 30.2 10.3 52 21.1 10.5 5.2 19.6 9.5 20.2 9.5.7 0 2-1 3.1-2.1 1.7-2 5.2-4.3 25.8-17.7 8.8-5.7 20-11.6 24.8-13.2 3.1-.9 4.3-.8 7.8.7l4.2 1.8-15.4 7.7c-8.4 4.2-18.9 9.8-23.3 12.4-4.4 2.6-10 5.8-12.5 7.1-7.8 4.3-12.6 9.8-9.5 10.9 1 .4 2.8-.4 4.8-2.3 1.8-1.6 6.4-4.9 10.2-7.3 9.9-6.2 45.2-24 47.5-24 1 0 2.2-.5 2.5-1 1-1.6 5.1-1.1 7.6.9l2.3 1.9-5.9 2.7c-3.3 1.5-7.6 3.3-9.5 4.1-7.1 3-22.8 11-33.2 17-5.8 3.4-12.7 7.1-15.2 8.3-2.9 1.2-5 2.9-5.6 4.5l-.9 2.5-10.8-6.8c-14.9-9.5-25.4-14.9-41.8-21.9-23.9-10-34.7-13.1-38.4-10.8-2.2 1.4-1 2.3 3.7 2.9 10.9 1.3 54.8 19.8 64.9 27.3 1.7 1.3 3.6 2.4 4.2 2.4.5 0 4 2 7.7 4.5 4.9 3.3 7.3 4.4 8.8 3.8 1.2-.3 2.8-.7 3.6-.7.8-.1 4.2-1.8 7.5-4 3.3-2.1 7.6-4.8 9.5-6.1 11.5-7.3 38.8-20.7 49.7-24.4 5.8-1.9 10.3-2.7 10.3-1.7 0 .2.3 1.2.6 2 .5 1.3-2.7 3.2-14.7 9-39.8 18.9-51.3 25-56.1 29.4-3.2 2.9-3.4 3.8-1.4 4.5.8.3 3.8-1.2 6.8-3.5 6.3-4.8 60.3-31.8 63.5-31.8 1.6 0 2.3.6 2.3 2 0 1.1-.5 2-1.2 2-.6 0-2.5 1.1-4.3 2.4-2.6 2-15.6 8.8-45.6 23.7-3.1 1.5-8.5 4.5-12 6.7-3.5 2.1-7.1 3.6-7.9 3.4-.8-.3-6.2-3.7-12-7.7-10.5-7.1-33.3-18.9-46.5-23.9-3.8-1.5-8.6-3.4-10.5-4.1-6.3-2.5-11.8-3.8-13.6-3.1-1 .4-1.4 1-.8 1.5.5.5 8.6 3.9 17.9 7.6 16.6 6.6 35.6 15.9 47.9 23.4 15.8 9.6 22.5 14.5 23.7 17.3.6 1.6 1 3.1.7 3.3-.2.2-4.9-2.7-10.3-6.4-22.4-15.4-55.6-32-61.2-30.6-3.5.8-2.8 2 2 3.4 6.5 1.9 43 21 54.2 28.3 11 7.2 19.4 14.2 18.3 15.3-.4.4-4.4-1.5-9-4.3-15.1-9-26.5-15.1-41.2-21.6-17.7-8-23.8-10-27.2-9.2-3.5.9-2.5 2.9 1.9 3.8 18.6 3.9 76.3 33.9 84.9 44.2 2 2.4 2.4 6.1.6 5.3-1.2-.5-28.9-18.6-31.3-20.4-2-1.5-16.1-8.2-23.7-11.2-9.4-3.7-15.2-4.8-16.3-3.1-.9 1.4 1.2 3 4 3 3 0 18.5 6.3 27.3 11.1 12.2 6.7 27.9 16.7 38.1 24.2 8.6 6.4 9.6 6.9 11.5 5.6 1.2-.7 4.8-2.8 8.1-4.6 8-4.4 11.5-4.4 8.3 0-1.4 1.7-18 10.7-19.9 10.7-.6 0-4.8-2.6-9.2-5.8-4.5-3.2-10-6.9-12.2-8.3-2.2-1.5-7.1-4.7-11-7.1-14.3-9.3-28.4-15.3-30.7-13-.9.9-.2 1.6 2.8 2.8 14.3 5.8 41.9 22.5 59.4 36 7.3 5.5 13.5 14.4 10.1 14.4-.5 0-4.5-2.6-8.8-5.8-14.3-10.5-38.5-25.8-49.2-31.1-10.7-5.4-13.4-6.3-17.2-5.9-5.2.5-4.3 2.9 1.6 4.3 5.7 1.3 10.5 3.7 29.4 14.8 18.9 11.1 29.5 18.1 37.6 24.7 3.9 3.1 8.8 6.6 11 7.6 3.9 1.8 8.2 7.9 7.3 10.4-.2.6-4.3-2.1-9.2-6-17.7-14.2-49-34-53.8-34-4.2 0-3.4 1.4 3 5.2 19.3 11.7 28.9 17.9 38.2 24.6 9.4 6.8 13.3 9.9 25.8 20.9 6.5 5.8 2.5 4.7-7.5-1.9-34-22.7-59.3-35.6-59.3-30.4 0 1 1.3 2.2 3.1 2.8 10.8 3.7 37.4 18.9 60.6 34.5 10.9 7.3 13.3 9.7 15.3 14.8 1.7 4.5.9 4-17.7-10.3-7.5-5.7-15.1-10.4-24.8-15.2-16.4-8.1-18.5-8.8-18.5-6.5 0 .9 1.6 2.3 3.8 3.1 7.7 3.2 22.9 11.2 29.7 15.7 7.3 4.7 28.4 21.7 27 21.7-.5 0-4.7-2.6-9.4-5.9-13.3-9.1-29.2-18.3-31.9-18.4-3.8-.3-3.8 2 0 3.7 8.3 3.8 23.8 13.5 37.6 23.7 14.9 11.2 12.7 10.5-11.8-3.5-23.4-13.3-26.2-14.7-28.4-14.4-3 .5-3.1 2.7-.2 3.8 3.9 1.4 44.3 23.7 49.1 27 9.4 6.5 18.2 16 14.8 16-.4 0-7.9-4.9-16.7-10.8-28.3-19-35.4-22.9-37-20.3-.5.8 8.4 7.1 9.9 7.1.6 0 16.8 10.4 31 19.9 5.5 3.7 12 7.9 14.5 9.3 4.4 2.5 8 7.1 6.7 8.4-.9 1-7.5-2.7-25.3-14.2-15.3-9.8-20.9-12.4-20.9-9.7 0 1.6 32.4 21.7 46.3 28.7 4.8 2.4 7.2 4.9 6 6.2-.6.6-19.7-9.2-38.6-19.8-12.9-7.3-17.2-8.7-17.2-5.9 0 1.3 6.3 4.7 35.5 19.5 22.9 11.6 30.5 16.4 27.6 17.4-1.9.6-10.1-2.9-22.2-9.5-11.9-6.4-15.3-7.5-14.7-4.7.3 1.7 28.3 16.7 36.8 19.6 4.9 1.7 8.9 4.9 9 7 .1 2.7-8.1-.4-27.5-10.2-11.9-6-22.8-11-24.1-11-6.4 0-1 3.3 30.1 18 8.8 4.1 18.2 8.8 20.9 10.3 2.7 1.5 5.7 2.7 6.7 2.7s2.6 1.1 3.5 2.5c3.4 5.2 1.6 4.7-23.6-6.5-6.3-2.8-12.9-5.8-14.6-6.7-3.2-1.6-6.9-1.2-6.2.8.2.6 7.8 4.1 16.8 7.8 22.2 9.1 37.7 16.7 39.1 19.3 1.1 2 .9 2-2.7 1.3-2.2-.4-4.3-1-4.9-1.5-.5-.4-3.5-1.5-6.5-2.5s-7.6-2.8-10.3-4.2c-5.4-2.7-13.1-4.1-14.1-2.5-.3.6.4 1.4 1.6 1.7 2.4.7 10.4 3.7 28.8 10.7 5.8 2.2 11.9 4.5 13.5 5 3.5 1.3 5.1 2.5 4.3 3.3-.9.9-16.8-3.1-23.9-6-3.4-1.4-7.2-2.5-8.5-2.5-2.3 0-4 2.5-2.4 3.5 2.1 1.3 20.1 6.1 38 10.1 3.1.7 5.2 2.3 4.5 3.5-.7 1-3.6.5-19-3.4-14.2-3.5-18.8-3.9-19.3-1.6-.2 1.2.6 1.8 3 2.1 1.8.3 8.7 1.7 15.3 3.1 6.6 1.4 15.2 3.1 19.1 3.8 5.7.9 7.9 1.8 11 4.6l3.9 3.4-4.5-.6c-2.5-.3-7.7-1.5-11.7-2.7-6.8-2-11.1-1.9-9.9.1.9 1.3 11.6 4.7 21.6 6.7 8.2 1.6 15 4.6 15 6.5 0 1.5-3.6 1.1-9.7-1.1-6.8-2.4-10.3-2.6-10.3-.6 0 1.9 3.3 2.9 21.5 6.6 18.5 3.7 23.5 5.1 23.5 6.6 0 1.1-5.3.3-16.9-2.4-4.4-1.1-7.5-.7-6.6.8.3.5 3.1 1.4 6.3 2 16.9 3.3 20.1 4.2 19.6 5.5-.7 1.7.3 1.9 15.6 4.4 21.3 3.4 34.9 5.1 50.1 5.9 10.9.7 15.2 1.3 17.1 2.6 2.4 1.6 2.9 1.6 6.2.2 3-1.2 4.2-1.3 6.4-.3 1.5.6 3 1.6 3.3 2.1.4.4 2.4.6 4.5.2 2.2-.3 10.2-1 17.9-1.6 15.1-1 19-1.8 23.2-4.8 4.4-3 5.3-3.4 5.3-2.3 0 .5-.9 1.3-2 1.6-2.2.7-2.8 3.4-.7 3.6 6.4.5 10.9.3 14.4-.8 6.2-1.8 23.3-2.9 23.3-1.4 0 .6-1.2 1.6-2.6 2.2-1.5.5-4.3 2.2-6.3 3.8-2 1.5-4.6 3.3-5.9 4-2 1-2.3.9-3.2-1.4-1.1-2.9-2.2-3.2-4-1-1.6 1.9-5.4 1.9-8.3 0-2.5-1.6-5.1-.6-4.2 1.7.4.9 1.6 1.8 2.7 2.1 1.1.3 1.8 1.1 1.6 1.8-.7 2-7.3 5.3-9.3 4.6-1.6-.7-1.7-.9-.1-2.5.9-1 1.6-2.8 1.6-4 0-3.7-2.2-3.7-5.4.1-1.7 2.1-3.6 3.7-4.3 3.7-.6 0-1.4.9-1.8 1.9-.7 2.3-6.7 5.3-8.9 4.5-.8-.3-1.8-1.4-2.1-2.5-.8-2.3-4.7-2.5-6.9-.3-.9.8-1.6 1.8-1.6 2.2 0 1.5-6.8 5.2-8.4 4.6-1.8-.7-2.1-2-.6-2.9 1.3-.8 1.3-5.2 0-6-.6-.3-2.2.3-3.6 1.4-2 1.5-3.1 1.8-4.4 1.1-3.2-1.7-4.1-1.2-3.8 2.2.2 2.7-.2 3.6-3.1 5.5-1.9 1.3-3.9 2.2-4.5 2-.6-.2-1.2-2.2-1.4-4.5-.3-4-2.2-5.7-3.7-3.2-1.1 1.8-4 1-6.9-2-4.4-4.5-7.8-4-12.8 1.5-2.3 2.5-4.5 4.5-4.9 4.5-.4 0-3.5-2.2-6.8-5-3.3-2.7-6.5-5-7-5-2.8 0-1.6 2.6 3.6 7.6l5.8 5.5-2.5 1.9c-2.9 2.3-6.9 2.6-9.4.7-1.7-1.3-1.7-1.4.8-3 5.6-3.7 1.8-7.2-3.9-3.7-3.5 2.1-3.7 2.2-5.6.4-1.7-1.5-1.8-1.9-.4-3.4 1.7-1.9 2-5.6.5-6.5-.6-.3-2.2.3-3.6 1.4-2.7 2.1-3 2.1-7.6-1.2-1.6-1.2-3.4-1.7-4.4-1.3-1.5.6-1.4 1 .9 3.4 3.4 3.6 3.4 4.8-.3 6.7-4.3 2.2-5 2-11-3.5-3-2.7-5.8-5-6.1-5-.4 0-.9-.9-1.2-2-.7-2.6-2.7-2.5-8 .1l-4.1 2.2-3.2-3.7c-2.9-3.4-5.2-4.4-6.7-3-.3.4.5 2.3 1.9 4.3 2.3 3.3 2.3 3.7.7 4.8-.9.7-2.2 1.3-2.9 1.3-2.1 0-4.4-3-4.4-5.6 0-1.5-.7-2.7-1.7-3-3.8-1.2-4.8-2.2-5.3-5.5-.7-4.4-2.6-4.7-9.4-1.4-3 1.5-6 2.4-6.6 2-1.3-.8-4.5-7.2-5.3-10.6-.4-1.7-1.8-3.1-3.8-3.9-2.9-1.3-3.2-1.2-5.6 1.8-3.8 5-5.6 4.2-9.8-4.1-2-3.9-4.8-8-6.1-9-1.3-1-2.4-2.5-2.4-3.3 0-1.8-3.7-1.8-7 .1-3.5 2-3.7 1.9-5.5-1.5-.9-1.7-2.2-3-3-3-1 0-1.5 1-1.5 3 0 2.7-.3 3-3.4 3-3.8 0-5.2-2-3.6-5 1.7-3.2 1.1-4.8-2.2-6l-3.3-1.2 3-1.3c1.6-.7 3.5-1.1 4.2-.8 1.8.7 6.3-2.4 6.3-4.4 0-1.6-1-1.6-11.2.3-3.5.6-3.7.5-5.7-3.5-3-5.8-5.4-5.6-4.5.4l.6 4.5h-3.9c-2.1 0-4.4-.5-5.1-1.2-1.7-1.7-1.5-4.5.5-5.6 2.3-1.4.9-4.2-2.2-4.2-1.8 0-2.8-.7-3.6-2.7-1.9-5.1-1.6-6.7 1.5-7.3 3.5-.6 5.6-3.4 3.9-5.1-.9-.9-2.3-.9-5.7 0-2.5.6-7.4 1.1-11 1.1-5.6 0-6.7-.3-8-2.2-2.1-3-2-3.3.9-4.6 3.8-1.7 3.3-5-.7-5.4l-3.3-.4 2.8-1.2c3-1.3 4.5-3.8 3-5.3-.6-.6-4.7-.5-11 .2-10.6 1.2-15.3.8-15.3-1.5 0-.7 1-2 2.2-2.8 3-2 1.8-4.8-2.3-4.8s-3.3-2.1 1.2-3.3c5.2-1.4 6.7-2.9 5.1-5.4-.6-1-1.9-.9-5.7.2-2.7.9-5.7 1.3-6.7.9-1.1-.3-2.4-.1-3.1.4-2.4 2-8.3 2.5-10 .8-2.2-2.2-1.2-4.2 2.2-4.9 3-.6 4.4-2.6 3.2-4.5-.5-.9-1.7-.9-4.6-.1-3.4 1-4.1.9-5.2-.7-1.2-1.7-1.1-1.9 1.2-2.6 3.3-.8 5.5-2.6 5.5-4.5 0-2-2.8-2.8-5.3-1.5-3.5 1.7-12.8 4.2-15.8 4.2-3.9 0-5.5-3.1-3.3-6.4 1.8-2.9 1.2-4.6-1.7-4.6-2 0-2.6-2.4-.9-3.5 1.3-.8 1.3-5.5 0-5.5-.6 0-2.3 1.1-3.7 2.4-1.4 1.3-4.4 3.2-6.6 4.2-3.8 1.8-4 1.7-5.3-.1-2.1-2.8-1.7-3.8 2.2-6.4 2.4-1.7 3.4-3.1 3.2-4.4-.5-3.1-2.2-3.1-5.8 0-3.1 2.6-3.3 2.6-4.6.8-.8-1-1.4-2.4-1.4-3 0-.7-1.2-1.7-2.7-2.4-2.4-1.1-2.9-1-3.8.5-4.4 7.7-10.3 5.6-6.6-2.4 1.2-2.5 1.2-3.5.3-4.4-1-1-1.7-1-3.3.1-1.9 1.1-2.5.9-5.3-1.8-3.9-3.8-4.9-3.8-7.1-.4-3.5 5.5-6.7 8.3-8.2 7.2-2-1.7-1.6-3.7 1.7-9.6 2-3.4 2.9-6.2 2.5-7.4-1.1-3.2-3.3-2.1-5.7 2.8-2 3.9-2.8 4.7-5.5 4.8-2.3.2-3.3-.2-3.6-1.6-.8-2.8-2.4-2.3-4.3 1.3l-1.7 3.2-1.8-2.3c-1.8-2.2-1.8-2.4.6-8.8 1.9-5 2.2-6.9 1.4-7.9-1.9-2.4-2.8-1.6-4.4 4.1-1.7 5.7-2.5 6.4-4.4 4.2-.8-1 0-3.5 3.1-10.1 3.2-6.6 4-9.1 3.2-10.4-1.9-3-3.3-2.3-4.7 2.5-2.4 8.1-4.5 12.3-6.1 12.3-2.2 0-2-2.7 1-10.6 1.4-3.8 3.7-10 5.1-13.9 1.4-3.8 3.2-8 4-9.2 2-3 1.3-6.8-1.1-6.8-1.5 0-2.3 1.1-3.2 4.5-1.5 5.9-7.8 22.9-9.9 27l-1.7 3.3-2.2-2.8-2.2-2.8 2.9-8.1c1.6-4.4 4.1-11.5 5.6-15.6 1.4-4.1 3-8.1 3.4-8.8 1.1-1.7-.1-5.2-1.8-5.2s-3.5 3.1-3.5 6c0 2-2.8 11.1-6.7 21.7-.9 2.4-2.2 4.3-2.9 4.3-2.1 0-2.7-4-1.1-7.4.9-1.7 3.4-8.3 5.7-14.6 4.3-12.1 7.9-21 11.1-27.2 2-3.9 1.1-5.9-1.6-3.2-.9.9-1.3 2.4-1 3.5.7 2.1-.5 2.5-2.2.8-1.8-1.8-4.3-.2-4.3 2.7 0 3.2-2.1 11-6.2 22.9-3.6 10.3-4.2 11.3-6.1 9.6-.8-.6-2.2-.8-3.1-.5-2 .7-1.7-.8 1.4-11.1 1.1-3.4 3.1-11 4.6-17 2.3-9.8 2.6-12.3 2.1-23-.3-6.6-1-13.6-1.6-15.7-1.4-4.6-3.8-5.7-4.7-2.1-1 3.7-8.3 13.1-14.8 18.9-5.4 4.9-18.7 12.3-26 14.5-3.4 1-4.1.9-5.1-.5-2-2.6-4-1.9-5.8 2.1-2 4.7-8.3 12.4-11.9 14.9-2.4 1.6-8.8 9.6-8.8 10.9 0 1.7 3.7-.2 8.1-4.1 2.8-2.5 5.3-4.3 5.6-4.1 1.6 1.7-5.9 10.5-18.5 22.1-3 2.8-4.2 5.6-2.4 5.6.5 0 3.3-1.7 6.3-3.8 8.2-5.7 8.3-5.8 7-3.4-1.1 2-12.2 12.1-19.4 17.6-3.2 2.5-4.9 5.6-3.1 5.6 2.5 0 16.1-10.4 23.2-17.7 2.5-2.6 4.9-4.2 5.7-3.9 2.6.9 23.1-5.5 32-10.1 1.6-.9 3.8-2 4.8-2.5 3.3-1.6 1.7 1-3.7 5.9-6.1 5.6-16.8 10.2-30.2 13-8.4 1.7-12.1 3.7-9.1 4.9 4.2 1.6 32.4-6.9 38.4-11.6 2.6-2 5.3-2.6 5.3-1.2 0 .8-7.4 6.6-12 9.3-4.5 2.7-17.3 7.1-26 8.8-6.3 1.3-8.6 2.1-8.8 3.4-.3 1.2.3 1.7 2 1.7 4.7-.1 16.1-3 24.7-6.4 9.9-4 11.1-4.2 11.1-2.1 0 3.1-20.6 11.2-36 14.1-3 .6-4.6 1.5-4.8 2.7-.3 1.2.3 1.7 2 1.7 3.9 0 21.1-4.8 26.9-7.4 6.4-3 8.4-2.2 3.9 1.5-6.1 5.1-30 13-34.3 11.4-.7-.3-2.5.3-3.8 1.4l-2.4 1.9 3 1.2c3.8 1.5 15.2-.7 26.2-5.1 7.6-3.1 9.6-3.2 7.3-.4-3 3.6-23 9.8-34.5 10.8-1.9.1-3.1.8-3.3 1.9-.3 1.4.3 1.8 3 1.8 4.6-.1 19.2-3.4 25.8-5.9 6.2-2.4 7-2.5 7-1.1 0 3-17.8 10.2-29.9 12.1-8.2 1.3-10.5 2.4-8.1 4 2.1 1.3 11 .2 19.9-2.6 7.7-2.5 9.1-2.4 9.1.1 0 2.8-14.9 8-26.5 9.2-4.6.5-6.1 1.1-6.3 2.4-.3 1.5.4 1.8 3.5 1.8 4.6 0 14.9-2.4 22.2-5.1 2.9-1.1 5.6-1.7 5.9-1.4.6.6 1 .3-5.3 4.3-9 5.6-14.5 7.5-21.7 7.6-7.3.1-8.7.8-6.8 3.1 2.4 2.8 16.4.9 22.8-3.1 1.3-.9 3.1-1.4 4-1.2 1.4.3 1 1.1-1.9 3.9-3.7 3.5-10.5 6.2-19.1 7.4-4.8.6-7.2 3-4.2 4.2 1.5.6 9.3-.6 15.4-2.3 2.5-.7 2.5-.7.6 1.5-2.1 2.3-10.2 5.1-14.8 5.1-1.8 0-2.8.5-2.8 1.5 0 1.7.5 1.8 8.3 1.5 8.9-.3 6.8 3.3-2.8 4.6-2.8.4-4.5 1.2-4.5 2 0 1.6.8 1.8 6.8 1.4 4.9-.2 5.2.7 2.1 5.6-2.6 4.2-3.8 4.3-4.5.4-.4-1.7-1-3-1.5-3-.9 0-1.4 1.9-2.4 9-1.1 8.1-7.6 16.6-14.5 18.9-3 1-3.7.9-4.8-.6-1.2-1.7-1.4-1.7-4-.1-10 6.4-14.2 7-24.4 3.4-5.3-1.9-8-2.2-13.5-1.9-5.3.4-7.1.2-8.1-.9-1-1.2-.8-2 .7-3.9 2-2.6 1.9-3.3-2.3-10.2-2.5-4.2-2.8-5.8-2.8-12 .1-9.4 1.9-24.6 3.8-32.7 6.8-29.1 11.9-54.3 13.9-69.2.5-3.8 1.1-5 3.3-6 3.4-1.7 4.5-5.4 1.3-4.5-1.2.3-2.3.2-2.5-.2-.5-.8 1.9-22.5 3.4-30.1.6-3 1.5-11.3 2-18.5 1-11.9 6.2-40.8 9.4-51.6 5.4-18 20.9-34.5 41.4-44 5.8-2.7 7.2-3.8 7-5.4-.7-4.5-6.1-2.6-20.3 6.9-20.6 13.9-32.9 31.5-37.1 53.3-.7 4-2.3 8.6-3.4 10.1-1.2 1.6-2.6 6.3-3.5 11.7-.9 5-2.7 14.5-4.2 21.2-2.4 11.5-2.5 15.3-.4 15.3.5 0 1.4-1.2 1.9-2.8l1-2.7.1 3.5c.1 4-1.2 6.9-2.3 5.1-.4-.6-1.8-1.1-3.1-1.1-1.9 0-2.8.9-3.9 3.4-1.2 2.9-10.1 10.5-11.1 9.4-.2-.2 2.3-4.6 5.6-9.8 3.8-6 5.8-10.2 5.5-11.4-.3-1.1.8-5.3 2.4-9.5 3.3-8.7 7.4-24.4 9-34.6 1.4-8.6 4.3-21.1 6.9-29.3 3.4-10.5 16.3-30.8 21.9-34.3 3.2-2 4.2-5.2 2.1-6.5-1.4-.8-5.7 3.3-12.2 11.6-2.8 3.6-6.5 8.1-8.2 10-1.8 1.9-3.5 4.8-3.9 6.3-.4 1.5-1.6 5.3-2.8 8.4l-2.1 5.6-1.4-2.6c-2.9-5.6-4.5-3.2-7.8 11.3-8.1 36.2-11.8 48.4-20.2 65.8-4.4 9.3-5.1 13.7-2.4 13.7 1.7 0 4.6-5.4 9.7-18 5.1-12.5 7.8-22 12.9-44.4 2.6-11.4 5.1-20.2 6.1-21.2 1-1.1 1.9-1.8 2-1.6.4.3-3.9 23.4-5.5 30.2-3.3 13.5-5.7 21.9-8.2 28.8-1.6 4.3-2.9 9-2.9 10.4 0 2.6-6.5 13.7-14.1 23.9-3.5 4.8-9.4 9.3-10.5 8.1-.2-.2 1.2-4.6 3.1-9.7 3.5-8.9 9.5-29.4 9.8-33.5.1-1.4-.5-2.1-2-2.3-1.9-.3-2.2.3-2.9 4.5-2.3 15.8-14.1 45-19.2 47.7-4.7 2.4-5.4 3.9-3.6 7.5.8 1.7 1.9 3.1 2.4 3.1.4 0 2.4-2 4.4-4.5 3.7-4.5 7.6-7.4 7.6-5.7 0 .5-2.3 4.4-5.1 8.7-4.8 7.2-5.6 7.9-12.5 11.2-4.1 2-7.7 3.4-7.9 3.1-.3-.2.6-2 1.9-3.9 6.9-10.3 1.8-14.7-7.9-6.8-5.9 4.8-19.4 13.9-20.6 13.9-.5 0-.9-.7-.9-1.5 0-3.2-3.8-1.5-5.3 2.3-1.9 4.8-2.4 5.2-12.2 9.2-29.1 12-58.9 18.3-84.8 18.1-13.5-.1-14.8 0-14.5 1.6.5 2.8 6.4 3.6 21.8 2.9 15.4-.6 26.4-2.1 39.5-5.5 11.7-3 12.1-3 9.5 1.8-2.1 3.6-2.7 3.9-9.9 5.5-13.7 2.9-32.7 4.1-45.3 2.9-11.6-1.2-14.6-.6-11.8 2.1 3.9 3.7 22.3 3.9 46.4.5 7.6-1.1 14.1-1.8 14.4-1.5.2.3-.3 1.6-1.1 3-1.7 2.6-5.9 3.6-14.2 3.6-2.2-.1-6.6.2-9.7.6-3.5.3-9.8-.1-16.3-1.1-8.4-1.3-10.9-1.4-12.1-.4-.8.6-1.3 1.4-1 1.6 1 1 14.8 3.4 22.9 4 9.7.7 11.9 2.3 3 2.3-10.8 0-30.8-4.3-38.6-8.2-3.5-1.7-3.8-1.7-4.4-.2-1.4 3.8 7.3 7.7 23.7 10.5 8 1.3 8.3 1.5 6.9 4.1-1.5 2.9-8.1 1.9-11.9-1.7-1.6-1.5-3.3-2.4-4-2-.6.4-1.7.1-2.5-.5-1.8-1.5-3.5-.5-3.5 2 0 2.3 3.8 5 10.5 7.6 4.1 1.5 4.6 1.9 2.6 2.2-3.1.5-18.5-4.4-20.1-6.3-1.4-1.7-3.6-2-4.5-.5-1.1 1.8 1.6 5.1 5.6 6.7 3.4 1.3 4 1.9 3.7 4.2-.4 3.5-3.2 3.8-12.1 1.1-7.4-2.2-10.7-4.3-10.7-6.7 0-1.6-1.2-1.7-2.8-.1-1.7 1.7-1.5 4.4.4 6.2.8.9 5.3 2.7 9.9 4.1 8.9 2.7 10.3 3.6 8.2 5.3-1.9 1.6-16.1-2.1-22.4-5.8-3.9-2.3-5.9-1.6-4.9 1.8.7 2.2 5.2 4.2 15 6.7 6.9 1.7 6.8 1.7 6 3.9-.6 1.5-1.5 1.6-5.8 1-7.5-1-25.7-7-29.9-9.8-3-2.1-3.8-2.2-4.8-1-2.9 3.5 3.4 7.6 18.6 12.1l6 1.8-3.8.3c-4.9.4-18.8-3.1-25-6.4-6.1-3.2-8.2-2.1-5.4 2.8 2.5 4.3.8 6.2-5 5.4-5.3-.7-6.1.5-2.6 3.8 2.8 2.6 2.8 2.6.8 4.6-1.8 1.7-2.3 1.8-4.5.6-1.4-.7-2.4-1.8-2.2-2.5.1-.7-.2-.9-.8-.6-.6.4-2-.1-3-1-2.3-2.1-4-1.2-4 2 0 1.5 1.1 3.3 3 4.7 3.7 2.7 3.8 3.8.3 3.8-3.8 0-10.1 1.8-10.9 3.1-1 1.7 1.8 3 5.2 2.4 2.8-.5 3.3-.2 3.9 2.2.5 1.6.7 3.8.6 5-.2 1.9.3 2.3 2.3 2.3 1.5 0 3.5-.5 4.5-1.1 2.3-1.5 7.1-.4 7.1 1.6 0 1-1 1.5-2.8 1.5-3.6 0-7.3 2.6-6.5 4.6.5 1.3 1.6 1.4 6.4.9 7-.8 10.6 0 8.8 2.1-.6.8-2 1.4-3.1 1.4-2.9 0-5.8 1.8-5.8 3.6 0 1.3.7 1.5 3.3.9 1.7-.3 5.3-.9 7.9-1.2 4-.4 4.8-.2 5.8 1.6.9 1.8.7 2.2-1.5 3.1-1.5.6-3.2 1-3.9 1-2 0-3.6 2.4-2.6 3.9.6 1.1 1.7 1.2 5.5.2 3.4-.8 5.1-.9 5.8-.2.8.8.8 1.1 0 1.1-.5 0-2.2 1.1-3.7 2.5-2.3 2.1-2.6 2.8-1.6 4 1.6 1.9 4.3 1.9 8.1 0 2.6-1.4 3-1.4 3.5 0 .4.9-.3 2.3-1.7 3.4-2.3 1.9-2.3 2-.6 3.8 1.4 1.5 2.1 1.6 3.7.5 2.4-1.4 7-1.6 7-.2 0 .5-.6 1-1.3 1-.7 0-2.2.6-3.2 1.4-1.7 1.2-1.7 1.6-.5 3.1 1.1 1.3 2.3 1.5 5.7 1 4.6-.7 5.2-.2 2.8 2.1-3.1 3.2-.4 6.5 3.5 4.4 1.6-.9 2.1-.6 2.6 1.5.7 2.9-2.1 6.6-6.9 9.2-3.4 1.7-3.2 4.5.3 5.3l2.5.6-3.2 1.7c-1.8 1-3.3 2.4-3.3 3.2 0 1.9 3.5 2.8 5.9 1.6 1.2-.7 2.2-.7 2.5-.2.9 1.5-4.3 7-8 8.6-4.2 1.7-4.8 5.5-.9 5.5 3.3 0 3.2 1.1-.5 3.5-3.3 2.2-4.2 3.8-3.4 6 .8 2 3.3 1.9 5.6-.2 1-.9 1.8-1.2 1.8-.6 0 .5-1.8 2.6-4 4.6-2.4 2.3-3.7 4.3-3.4 5.2.4.8 1 1.5 1.5 1.5 1.8 0 .8 2.8-1.6 4.4-3.2 2.1-3.4 6.3-.3 6.8 2 .3 1.8.6-1.6 3.2-7.6 5.7-15.8 5.2-16.4-1-.4-3.6 1.1-5.1 5.3-5.6 2.4-.2 3-.7 2.8-2.4-.2-1.7.5-2.3 2.7-2.8 2.1-.4 3-1.1 3-2.4 0-1.7-.6-1.8-4.7-1.5-7.6.7-9.9-.7-11.2-6.8-.6-2.9-2.1-7.3-3.2-9.8-1.5-3.3-2.1-7.1-2.3-13.4-.3-9.6-1.6-12.1-8.1-15.4-1.6-.9-7-4.2-11.9-7.4-4.8-3.3-9.3-5.9-9.9-5.9-2.2 0-15.8-11.4-18.1-15.2-2.2-3.7-2.3-4.3-1.1-8.3.8-2.3 2.9-6.5 4.8-9.1 5.4-7.7 7-11.3 5.7-12.9-1.6-2-3.4-.9-5.3 3-2.9 6.1-7.2 3.8-5.7-3 .5-2.1.7-4.3.4-4.7-1.2-1.8-3.6-.6-4.6 2.4l-1.1 3.1-2.7-3.3c-3.3-4.1-5.5-3.5-6.4 1.7-1.8 9.3-8.3 11.9-6.9 2.7.7-4-.7-4.8-5.2-3-3.8 1.6-4.5 3.8-1.9 6.3 1.7 1.8 1.3 5.3-1.3 9.2l-1.5 2.3-2-2c-2-2-2-2.1-.2-7.1 1.3-3.8 1.5-5.4.7-6.2-1.8-1.8-4-.4-4.6 3-.7 3.5-3.2 4.2-4.2 1.1-.7-2.2-4-4.4-5.4-3.6-.5.3-1.2 3-1.6 6.1-.3 3-1.5 6.5-2.5 7.7-2 2.4-2 2.4-2.3-3.2-.2-2-.8-2.6-3-2.8-4.3-.5-5.9 1.4-5.2 6.2.5 3.4.3 4.7-1.4 6.6l-2.1 2.5-1.9-2.2c-2.6-3.1-4.7-2.9-5.4.4-.6 3.3-4.6 9.5-6.4 10.1-.7.2-1.8-.8-2.5-2.3-.8-1.9-1.7-2.5-3.1-2.1-1.1.3-2.6-.5-4-2-2.2-2.5-6.1-3.2-7.3-1.2-.4.7.8 2.4 3.2 4.4 3.8 3.2 3.8 3.3 2 5.3-2.8 3.1-6.4 2.7-8.4-.9-2.2-3.8-3.9-4.4-5.2-2-.8 1.5-.5 2.5 1.5 4.9 1.9 2.2 2.2 3.1 1.3 3.7-2.2 1.4-18.1 1.7-22.6.5l-4.3-1.2.3-11.2c.3-9.4.1-11.2-1.2-11.2-1 0-1.6 1.3-1.8 4.2-.4 4.9-.7 5.1-3.1 2.1-2.2-2.6-4.3-1.6-4.1 2 .3 4.7 0 7.2-.9 7.2-.5 0-1.2-1.1-1.5-2.5-1.3-5-4.6-2.4-4.6 3.5 0 3.7-4.1 8.6-8.3 9.9-4.7 1.4-21.3 2.9-46.2 4.1-12.1.6-24 1.5-26.5 2s-7.5.9-11.2 1c-15.6.1-5.2-5.1 19.2-9.6 5.2-.9 12.7-2.5 16.5-3.6 3.9-1.1 10.2-2.6 14-3.5 8-1.8 10.5-3.5 10.5-7.1 0-2.8 0-2.8-16.5.2-30.7 5.5-56.2 8.4-59.5 6.6-3.4-1.8-2.4-5.1 3.4-10.5 5.4-5.2 20.5-13.5 24.3-13.5 1.1 0 5.7-1.2 10.4-2.6 4.6-1.4 11.1-3.4 14.4-4.4 3.3-1 9.2-3 13-4.5 17.9-7 35.3-11.7 39.4-10.5 4 1.1 5.1.2 5.1-4 0-3.4.6-4.3 7.2-10.1 11.1-9.9 17.7-17 19.7-21.4 1-2.2 3.5-5.6 5.5-7.4 4-3.9 4.4-5.6 1.9-8.3-2.6-2.9-4.2-2.1-6.7 3.4-2.8 6.4-5.1 8.6-7.4 7.1-2.1-1.3-7.2-11.5-7.9-15.7-.5-3-.3-3.3 3.5-4.4 2.1-.7 8.7-1.2 14.5-1.2 10.6 0 10.7 0 11.3-2.5.8-3.3-.6-4.8-7.5-8.5-4.4-2.4-6.9-4.8-11.7-11.3-8.7-11.7-9.6-13.2-14.7-23.2-5.4-10.7-6.6-17.2-4.2-22.8 3.9-9.4 16.6-8.7 45.1 2.4 13.9 5.4 15 5.2 16-2.6.2-1.6.7-3.8 1-4.7.7-2.4-1.2-5.5-3.8-6.4-2.2-.7-23.8-14.2-24.8-15.5-.3-.3-2.5-1.6-5-2.9-7.2-3.6-23.1-14.3-28.4-19.2-4.6-4.1-5.1-5-6-10.9-1.2-8.4-1-33.9.4-42 2.8-16.1 4.4-22.1 6.7-24.5 2.7-2.9 5.8-2.8 5.8.1 0 1.4 1.9 3 6.5 5.5 3.6 1.9 11.2 6.7 17 10.5 9.8 6.5 52.7 29.9 63.1 34.3 2.5 1.1 5.1 1.7 5.8 1.3 2.3-1.5-.2-4-5.4-5.6-5.3-1.5-34.3-15.9-48-23.8-3.8-2.2-11.8-7.2-17.6-11.1-5.9-3.9-11.5-7.6-12.5-8.2-1.1-.7-1.6-1.5-1.2-1.9.9-1 22.7 8.9 28.8 13.1 2.5 1.7 7.5 4.6 11 6.5 3.6 1.8 9.3 5.3 12.7 7.7 9 6.3 16.3 8.9 26.1 9.4l8.3.5 3.3-5.6c3.1-5.1 5.6-11.7 5.6-14.8 0-1.9-4-5.1-9.5-7.7-7.8-3.6-26.4-17.5-29.1-21.8-4.1-6.4-7.5-14.9-8.9-22.3-.7-3.9-1.8-9.2-2.4-12-2.2-9.8-1.9-41.8.4-57.7.3-2 1-7.6 1.5-12.5.6-4.8 1.7-12.9 2.4-17.8.8-5 2.1-13.5 2.9-19 .9-5.5 2.5-15.2 3.7-21.5 3.4-18.4 3.8-21.4 4.5-30.2.6-7.7 2-16.1 4.7-26.6 1.2-4.9 2.2-5.5 11.7-7.2l6.1-1.1 4.9 4.8c2.7 2.6 7.9 9.3 11.7 14.8 3.7 5.5 9.1 13.2 11.9 17.2 13.2 18.8 31.4 45.9 46.9 70.2 7.1 11 18.8 27.1 29.6 40.6 5.2 6.6 10.8 13.7 12.3 15.7 2.7 3.7 5.9 4.9 7.2 2.8.3-.6-1.8-3.6-4.8-6.8-12.1-13-22.5-27.1-46.4-63.2-9.9-15.1-21.6-32.6-26-38.9-4.3-6.2-8.2-12-8.8-12.9-.5-.9-4.8-6.8-9.5-13.1-8.9-12.3-15.3-21.3-18.3-26.2l-1.9-2.9h2.4c3.7 0 18.7 8 19.4 10.4.4 1.2 2.3 3.9 4.3 6.1 2 2.2 5.1 6.5 7 9.5 1.8 3 5.7 9.1 8.6 13.5 2.8 4.4 11.8 18.6 19.9 31.5 29 46.3 59 88 63.3 88 3.5 0 2.3-3.3-3.3-9.3-9-9.5-31.2-40.9-51.6-72.9-6.2-9.7-14.5-22.8-18.5-29-12.3-19.2-17.5-28-17-28.5.3-.2 2.9 1.4 5.8 3.7 2.9 2.3 6.4 4.7 7.9 5.5 2.4 1.2 9.9 11.7 20.4 28.7 3.8 6 22.9 35.2 38.2 58.3 4 6 10.8 15.5 15.1 21 4.3 5.5 8.6 11.2 9.6 12.8 1.7 2.6 6.7 3.9 6.7 1.7 0-.5-3.9-5.6-8.6-11.2-4.8-5.7-12.5-16.2-17.2-23.3-4.7-7.2-11.9-18.1-16.1-24.3-4.2-6.3-8.5-12.9-9.6-14.7-1.2-1.9-2.8-4.2-3.6-5.2-1.5-1.6-15.2-23.2-20.8-32.6-1.3-2.1-2.1-4-1.9-4.2 1.1-1.1 11.9 3 14.1 5.4 2.6 2.8 18.8 26.9 33.7 50.1 15.3 24 18.1 28.2 24 36 3.1 4.1 6.9 9.4 8.4 11.7 2.7 4.4 5.9 5.6 7 2.7.4-1-1.1-3.4-4.2-6.7-9.2-10-11.7-13.5-22.3-31.2-2.3-3.9-4.5-7.2-4.8-7.5-.3-.3-5.3-7.5-11-16-5.8-8.5-12.6-18.4-15.1-22-2.6-3.6-5.9-8.6-7.4-11.3-3.3-5.5-3-5.6 6.7-3.1 7.6 2.1 9.4 4.3 20.3 24.2 17.2 31.4 41.9 67.2 46.4 67.2 3.1 0 2.4-2.9-1.5-6.7-8.1-7.8-26.6-35.5-41.6-62.2-5.4-9.6-9.7-17.7-9.5-17.9.2-.2 2.1.1 4.2.7 5.4 1.5 12.2 10.1 23.7 29.9 16.4 28.3 29.3 47.3 33 48.6 5.4 1.9 4.7-2.4-1.4-8.1-2.2-2.1-6.2-7.4-8.9-11.8-15.3-24.5-31.9-52-31.5-52.3.4-.4 13.2 5.9 18.2 8.9 3.5 2.2 7.1 7.8 22.3 35.2 5.2 9.2 10.6 18.2 12.1 20 2.5 2.9 2.9 3.1 4.4 1.6 1.4-1.4 1.3-2-2.3-6.5-6.9-8.9-22.1-34.9-21-36 1.9-1.8 25.4 22 28.9 29.3 1.1 2.4 3 4.8 4.1 5.4 4.3 2.3 13.9-2.1 27-12.3 3.1-2.4 4.4-2.8 6.9-2.3 3.5.8 5.1-.6 4.4-4-2-9.8-4.8-19.7-6.5-23.2-1.1-2.3-2-4.7-2-5.2 0-.6-1.2-3.6-2.6-6.8-4.6-10.4-5.7-17.4-4.3-27.5.6-4.9 1.6-9.1 2-9.4.5-.3.9-1.2.9-2 0-3.8 9.1-18.9 16.8-27.9 16.3-19 29.3-28.9 53.4-40.8 14.9-7.4 29-15.4 34.7-19.8 1.4-1.1 6.2-4.8 10.6-8.3 4.4-3.4 9.5-7.1 11.2-8.2 1.8-1.1 5.4-4 8-6.5 2.7-2.4 5.9-5.2 7.3-6 3.5-2.3 12-4.9 20.3-6.4 9.3-1.7 9.2-1.7 11.9-.4zm-162.7 21c.4 1.7.4 5 .1 7.4-.4 2.4-.3 4.6.2 4.9.5.3.9 0 .9-.7.2-2.7 1.5-12.3 1.8-13.5.6-1.7 2-1.5 4 .4 1.4 1.4 1.5 3.5 1 14.8-.3 7.2-.8 13.9-1.1 14.9-.9 3-1.2 10.7-.4 10.7 1.1 0 2.8-11 3.5-23 .3-5.8 1-10.9 1.5-11.4 1.3-1.3 5.8 1.2 6.7 3.8.8 2.3.7 4.8-.3 19.9-.5 8.4-.8 9.8-2.2 9.5-1.3-.3-1.7-1.4-1.7-4.5 0-3.7-.2-4.1-1.4-2.8-.9.8-1.6 3.8-1.8 6.7-.3 7.8-1.6 13.1-3.2 13.6-1.1.4-1.3-.6-.8-5.2.5-5.5-.5-7.7-1.7-3.4-.5 2.2-.6 2.2-2.3.6-1.3-1.4-1.5-2.2-.6-4 1.7-3.3 2.6-9.8 1.4-9.8-.5 0-1.3.9-1.6 2-1.1 3.4-2.5 2.2-2.6-2.3 0-3.5-.2-3.8-.9-2-.5 1.3-1.2 4.6-1.5 7.5C454.4 71 452 78 449.9 78c-1.2 0-2 1-2.4 3.2-.9 4.4-3.4 9.8-4.5 9.8-1.7 0-1.7-1.5-.4-8 .8-3.6 1.7-7.8 1.9-9.4.3-1.5 1.2-4.2 1.9-6 1.4-3.5 1.9-9.6.7-9.6-.4 0-1.3 1.7-1.9 3.7-1 3.4-1.6 6.8-3.7 19.3-.8 4.5-4.1 12-5.4 12-2.1 0-2-2.2 1-13.7 3.5-13.4 4.5-17.9 5.9-27.8.6-3.9 1.7-8.8 2.5-11 .8-2.2 1.5-5.3 1.7-7 .2-1.9.9-3.1 2.1-3.3 1.6-.3 1.8.1 1.3 3.2-.3 2-.2 3.6.3 3.6s1.1-2.1 1.4-4.7c.3-2.9 1.2-5.2 2.3-6 2.6-1.9 3.2-1.6 3.9 1.8zm-17.3 24.3c-1.1 4.5-3.2 13.5-4.7 20.1-2.9 13.4-3.5 14.9-5.9 15.3-1.4.3-1.6-.2-1.1-2.8.3-1.8 1.2-4.5 2-6.1 1.9-3.5 1.9-4.3 0-3.5-2.2.8-1.9-2.4 1.4-15.5 3.6-14.1 4.7-16.8 7.4-19.7l2.2-2.4.3 3.3c.2 1.7-.5 6.8-1.6 11.3zm44.2-5.3c2 1.6 2.5 2.7 2.2 5.2-.3 1.8-.5 4.4-.5 5.9-.1 1.7-.7 2.8-1.5 2.8-1 0-1.3-.9-.9-3.3.6-4.3-1.6-2.2-2.6 2.4-.4 1.8-1.2 3.4-1.8 3.6-.9.3-1.1-1.8-.7-7.9.7-11.9 1-12.5 5.8-8.7zm-22.8 33.4c-.4 2.5-1.1 4.5-1.7 4.5-1.1 0-1.2-5.3-.1-6.4.4-.4.8-1.2.8-1.7.3-2 .4-2.2 1-1.6.4.3.3 2.7 0 5.2zM441.3 98c-.3 1.1-.9 2-1.4 2-1 0-1.2-2.4-.2-3.3 1.3-1.3 2.1-.7 1.6 1.3zM426 111c0 .5-.5 1-1.1 1-.5 0-.7-.5-.4-1 .3-.6.8-1 1.1-1 .2 0 .4.4.4 1zm-283.3 60.2c2.3 2.6 12.3 17.4 12.3 18.3 0 .3 1.1 2.3 2.5 4.5 2.3 3.7 7.9 17 7 17-.2 0-1.6-2-3.1-4.4-1.6-2.5-3.8-4.7-4.9-5-1.3-.3-3.3-3.1-5.6-7.8-5-10.3-6.9-14.7-6.9-16.1 0-.8-1.3-2.6-3-4.2-1.6-1.6-3-3.2-3-3.7 0-1.6 2.7-.8 4.7 1.4zm11.2-1.1c2.3.8 4.5 3.2 8.4 9.2 6.2 9.6 7.6 12.6 8.4 18 .4 2.9.2 3.8-.7 3.2-1.4-.8-7-12.3-7-14.3 0-.6-.4-1.2-1-1.2-1.8 0-1.1 2.7 2.5 10.3 1.9 4.1 3.5 7.9 3.5 8.6 0 1.9-2.4.7-3-1.5-.6-2.3-7.6-14.9-13.7-24.8-2.4-3.8-4.3-7.4-4.3-7.8 0-1.1 3.2-1 6.9.3zm-16.2 5.2c1.2 1.7 5.4 9.7 9.3 17.7 4 8 7.8 15.7 8.6 17.2.8 1.4 1.4 3.2 1.4 3.8 0 .7 1.8 5.3 4 10.2 2.2 5 4 9.9 4 10.9 0 4.1-2.3 1.4-6.5-7.6-2.5-5.2-4.9-9.5-5.5-9.5-1.4 0-1.4 0 3 9.1 3.9 8.1 4.9 11.9 3.1 11.9-1.4 0-3.8-4.2-4.6-8-.4-1.9-1-4-1.4-4.5-1.2-1.7-4.8-11.5-8.7-23-2-6.1-5.2-14.4-7.1-18.5-5.7-12.2-5.5-18.4.4-9.7zm-6.6 3.4c1.2 2.7 3.7 8.1 5.5 12.2 1.9 4 3.4 7.9 3.4 8.6 0 1.2 4 12.2 12.5 34 3 7.9 4.7 13.9 4.9 17.5.2 3 .6 6.8 1.1 8.5.6 2.4.5 2.8-.5 1.8-.7-.6-2.9-6.2-5.1-12.5-2.6-7.9-4.4-11.6-5.8-12.3-1.4-.7-3.4-5.1-7-16-5.2-15.5-6.5-19.1-10.1-28.5-4-10.3-5.3-14.8-4.7-16.4 1.2-3 3.7-1.6 5.8 3.1zm36.6-2.3c1.9 1.7 2.1 6.1.3 6.1-1.4 0-6-5.9-6-7.7 0-1.1 4 0 5.7 1.6zM127.8 196c1.2 2.8 2.2 5.6 2.2 6.3 0 .7.4 1.7.8 2.2.9 1 10 28.3 14.7 44 1.5 4.9 3.4 10.9 4.1 13.3 1.4 4.4.9 12.6-.7 11.6-.5-.3-1.5-2.6-2.2-5.2-.9-3.1-2.1-5-3.6-5.7-2.4-1.1-3.1-3.3-7.6-23-1.5-6.5-3.5-13.7-4.5-16-4.3-10.2-8.4-32.5-5.9-32.5.3 0 1.5 2.3 2.7 5zm528-1.3c-.2 1-1.3 1.9-2.6 2.1-2.4.4-2.5.2-1.6-2.2.9-2.3 4.6-2.1 4.2.1zm-14.4.8c1.1.8 2.9 1.5 4 1.5 1.9.1 2 .1.3 1.1-3 1.7-7.2.7-7.5-1.9-.4-2.5.5-2.7 3.2-.7zm-478.8 19.2c2.6 6 4.4 12.3 3.5 12.3-1.1 0-3.7-5.5-4.6-9.5-.4-1.7-.9-3.8-1.2-4.8-.8-3.1.6-1.8 2.3 2zm6 4c1.1 2.7 2.1 5.1 2.2 5.5.2.5-.1.8-.7.8-1 0-2.9-3.8-4.5-8.8-1.4-4.3 1.2-2.1 3 2.5zm-3.8 32.3c.3 2.1.2 2.2-1.2 1.1-1.9-1.6-2.1-4.4-.3-3.9.6.3 1.4 1.5 1.5 2.8zm676.2 8.2c0 .7-5.9 6.9-13 13.6-9 8.5-13.5 12.2-14.6 11.8-.9-.3-1.4-.9-1.2-1.4 6.1-13.2 8.2-16.4 13.6-20.6 4.9-3.9 6.4-4.5 10.5-4.6 3.1 0 4.7.4 4.7 1.2zm14.2 1.4c3.6 1.9 4.8.6-13.2 14.9-13.1 10.5-19.3 14.5-20.6 13.2-1.5-1.5 2.1-7.9 7-12.3 10.7-9.8 12.1-11 16.1-14.1 4.5-3.7 6.3-4 10.7-1.7zM156 264c.7 1.7 1 3.3.6 3.7-.8.9-1.6 0-2.1-2.6-.2-1.1-.7-2.6-1-3.1-.3-.6-.2-1 .3-1s1.5 1.4 2.2 3zm-9.6 11.6c1.8 7.1 2 9.8.6 8.9-.5-.3-1-1.6-1-2.9 0-1.2-.5-2.7-1-3.2-.6-.6-1.3-3.5-1.6-6.5-.7-6.7.8-5 3 3.7zm-6.3-1.5c.4 2.4 1.2 6.2 1.8 8.4 1.4 5.1 1.5 8.3.1 6.9-.7-.7-5-17.9-5-20.2 0-.2.6-.2 1.2 0 .7.3 1.6 2.5 1.9 4.9zm741.4-1.2c0 .7-2.5 2.7-5.5 4.3-7.5 4.1-33.5 21.2-38.7 25.4-3.6 3-4.5 3.3-6.6 2.3l-2.4-1.1 4.2-3.9c4.7-4.4 5.6-5 21.5-16.1 14.2-10 19.6-12.8 24-12.5 2.2.1 3.5.7 3.5 1.6zm10.9 4.9c.3.5-2.9 2.9-7.2 5.3-9.8 5.5-38 23.6-40.8 26.1-2 1.8-5.4 1.6-5.4-.2 0-3.2 20.9-18.7 35.6-26.4 8.2-4.3 16.7-6.6 17.8-4.8zm36.6 39.4c0 .7-1.4 3.5-3.1 6.1-2.5 4-3.3 4.6-4.4 3.7-1.2-1-2-.9-3.8.3-1.3.8-7.7 4-14.3 7-6.5 3-16.7 7.8-22.6 10.7-9 4.5-11 5.1-12.3 4-1.2-1-1.3-1.6-.4-2.6 1.5-1.9 21.9-12.9 40.4-21.8 19.3-9.4 20.5-9.8 20.5-7.4zm-10 16.2c-2.4 2.3-23.9 13.3-31.5 16.1-3.8 1.5-7.8 3.4-8.8 4.3-1.4 1.2-2 1.3-3 .3-2-2.1-.6-2.9 28.3-16.2 12.5-5.8 18-7.4 15-4.5zm-18 15c-3.3 1.8-7.7 3.1-6.7 2 .9-1 6.6-3.2 8.2-3.3.6 0-.1.6-1.5 1.3zm7.7 33.3c.5 1.3-11.5 7.9-17.1 9.4-3.2.9-4.2.8-5.4-.5-.9-.9-1.4-1.8-1.1-2.1 1-.9 21.4-8.4 22.3-8.1.6.1 1.1.7 1.3 1.3zm-16.7-.3c0 .2-.7.6-1.5 1-.8.3-1.5.1-1.5-.4 0-.6.7-1 1.5-1s1.5.2 1.5.4zm9.4 20.5c-4 2.9-8.4 4.5-8.4 3.1 0-.4 1.8-1.5 3.9-2.3 2.2-.9 4.2-2.1 4.6-2.7.3-.5 1.4-1 2.3-1 .9 0 0 1.1-2.4 2.9zm.3 6.8c-.9.9-2 1.3-2.4.9-.4-.4.1-1.4 1.1-2.2 2.5-1.8 3.5-.8 1.3 1.3zM728 410.3c0 .8-3 4.2-6.7 7.6-7.2 6.7-19.4 13.6-29.2 16.5-5.6 1.6-8.1 3.1-8.1 4.9 0 3.4 22.6-5 32.1-11.9 8.2-6 9.6-3.5 2.2 3.8-5.2 5-14.5 10-26.3 14.2-9.6 3.4-12 4.6-12 6.3 0 1.6 1.4 1.6 7-.1 10-3.1 20.5-7.7 27.5-12 4-2.5 7.8-4.6 8.4-4.6 3.6 0-4.7 8.2-13.9 13.8-4.8 2.9-17.6 7.9-24.9 9.7-5.8 1.5-6.1 1.5-8.1-.5-2.4-2.4-2-3.4 3.8-8.6 2.9-2.6 3.4-3.6 2.8-5.8-.3-1.4-1.3-2.6-2.1-2.6-2.2 0-1.9-1.3 1.3-5.3 1.5-2 3.5-4.7 4.4-6 1-1.5 2.7-2.4 4.5-2.5 6-.2 24.2-9 31.3-15.1 3.8-3.2 6-3.9 6-1.8zm-138.3 31.8c-.3 2.5-1.5 4.9-3.1 6.4-1.4 1.3-2.6 3.1-2.6 4 0 2.1-2.7 3-4.5 1.5-1.2-1-1-2 1.7-6.8 5.2-9.5 9.4-12.1 8.5-5.1zm-14.9 7.6c-4.5 10-7 13.2-14.3 18.2-4.2 2.9-7.9 5.1-8.1 4.8-1.1-1.1 9.9-15.9 13.9-18.7 2.3-1.6 4.7-3.4 5.2-3.9 1.2-1.2 3.8-1.4 3.3-.4zm12.2 10.1c0 .5-.9 1.7-2 2.7-2.3 2.1-2.6 1.4-.8-1.5 1.3-2 2.8-2.7 2.8-1.2zm-8 1.8c0 3.1-8.1 15.4-11.8 17.9-3.7 2.6-6.2 3.2-6.2 1.6 0-2 11.9-18.7 14.1-19.8 3.3-1.6 3.9-1.6 3.9.3zm155 3.4c1.3 4 1.2 4.4-2.5 12-2.2 4.4-4.2 8-4.6 8-.4 0-1.4-1.1-2.3-2.5-1.6-2.5-1.5-2.9 2.5-12 2.2-5.2 4.4-9.5 4.8-9.5.5 0 1.4 1.8 2.1 4zm-174 8.9c0 .7-2.3 4.4-6.9 10.8-1.6 2.4-11.8 7.9-12.8 7-.2-.3.7-2.6 2.2-5.2 1.9-3.1 4.9-6.1 9.4-9.1 6.7-4.5 8.1-5.1 8.1-3.5zm180.2 4.1c-.1 1.3-1.1 3.4-2.2 4.5-1.1 1.2-2 3.1-2 4.2s-.8 3.1-1.8 4.3c-1.5 1.9-2 2-3 .8-.9-1.1-.6-2.6 1.1-6.9 1.3-3 2.8-6.4 3.6-7.7 1.6-3.1 4.7-2.5 4.3.8zm-161.3 1.2c-3.1 5.9-13 19.6-14.5 20.2-3.5 1.3-3.3.7 3.9-10.9 4.4-7.2 8.1-11.5 9.8-11.5 1.7 0 1.8.3.8 2.2zm-56 4c-3.1 6.2-6 8.7-11.5 10.3-4.2 1.2-5.4 2-5.2 3.3.2 1.1 1.3 1.7 3.1 1.7 1.5-.1 2.7.4 2.7 1 0 4-8.5 8.5-16.2 8.5H492l1.8-4.8c1.6-4.4 2.7-5.3 14.7-13.5 13.5-9.1 16.5-10.4 14.4-6.5zM583 485c-.7 1.6-1.9 3-2.6 3-1.9 0-1.8-.7.7-4.2 2.6-3.6 3.6-3 1.9 1.2zm346.5-3c.3.5.2 1-.4 1-.5 0-1.3-.5-1.6-1-.3-.6-.2-1 .4-1 .5 0 1.3.4 1.6 1zm-183.3 1.7c2.1 1.9 2.3 4.2.5 6.8-1.3 1.7-1.5 1.7-3-.6-1.7-2.4-2.2-6-1-7.2.9-1 1.5-.9 3.5 1zM564 486.9c0 1.3-11.6 18.5-13.8 20.4-2.2 1.9-9 5.7-10.2 5.7-1.8 0-1.1-1.4 5-10 3.9-5.5 8-10 11.7-12.7 6-4.4 7.3-5 7.3-3.4zm160.1 1.2c.9 1.7.7 2.5-1 4.3-1.1 1.2-2.6 3.6-3.2 5.4-1.2 3.4-2.7 4-4.7 2-1.8-1.8-1.5-3.3 1.9-8.8 3.3-5.4 5.2-6.2 7-2.9zm-189.9 3.1c-2.1 3.4-9.4 8.1-14.6 9.4l-3 .7 2.1-3.4c1.4-2.2 4.2-4.5 8.4-6.6 8.3-4.3 9.7-4.3 7.1-.1zm207.2 2.3c1.8 2.7 1.2 7.5-.9 7.5s-4.6-3.6-3.9-5.6c.7-1.8 2.4-4.4 2.9-4.4.2 0 1 1.1 1.9 2.5zm12.6 1.2c0 1.8-2.8 2.9-4.2 1.5-.7-.7-.6-1.7.2-3.2.9-1.7 1.4-1.9 2.6-.9.8.6 1.4 1.8 1.4 2.6zM541.8 496c-4.9 3.1-6.8 3.7-6.8 2.1 0-1.1 7.9-5.1 10-5.1.8 0-.6 1.4-3.2 3zm38.6-1.2c-.6.4-2 2.8-3.2 5.4-3.4 7.7-7.7 13.1-12.6 15.8-2.5 1.3-4.8 2.1-5.1 1.8-1.2-1.2 10.4-17.9 13.6-19.6 1.7-.9 4.1-2.4 5.3-3.4 1.1-.9 2.3-1.4 2.6-1.2.2.3 0 .8-.6 1.2zm150.2 1.3c1 1.7-1.3 3.6-2.7 2.2-1.2-1.2-.4-3.3 1.1-3.3.5 0 1.2.5 1.6 1.1zm28.9 3.9c.7 2.2-1.1 5.3-2.6 4.4-.5-.3-.9-1.5-.9-2.8 0-3.9 2.4-5 3.5-1.6zm-22 2c1.7 1.9 1.5 5-.3 5-1.7 0-4.2-3.7-3.6-5.4.8-2.1 1.7-2 3.9.4zm-249.6 6.4c-2.8 4.7-4 5.8-7.9 7-5.2 1.7-20.4 5.6-20.6 5.3-.1-.1-.4-1.8-.7-3.8l-.5-3.6 9.6-3.2c5.4-1.8 12.4-4.6 15.7-6.1 3.3-1.5 6.4-2.4 6.9-1.9s-.5 3.2-2.5 6.3zm38.9-6.2c-.4 1.5-13.7 8.2-14.5 7.4-1.1-1.1 2.2-3.9 7.2-6.2 5.7-2.6 7.8-2.9 7.3-1.2zm12 1.6c-.3 1-2.5 4.6-4.9 8-3.2 4.5-5.8 6.9-9.4 8.7-2.7 1.4-5.1 2.1-5.3 1.6-.4-1.2 6.8-12 9.3-14.1 2.3-1.9 8.8-5.8 9.9-5.9.4-.1.6.7.4 1.7zm187.1-.4c1.6 1.9-.3 5.8-2.4 5-1.6-.6-1.9-2.2-.9-4.8.8-2 1.8-2 3.3-.2zm22.9 1c.2 1-.1 2.3-.7 2.9-1.6 1.6-4.4-1.4-3.5-3.7.8-2.2 3.8-1.7 4.2.8zm-33.2-.3c.3.6.1 1.6-.4 2.1-1.3 1.3-4.5-.8-3.6-2.3.7-1.2 3.1-1.1 4 .2zm60.9 6c-.7 2.1-3.4 2.6-3.6.6-.2-2.2.3-4.2 1.4-5.5.9-1.1 1.3-.9 1.9.9.5 1.2.6 3 .3 4zm-9.9-1.9c.8 2.7-1 4.5-3.1 2.8-1.5-1.2-2-4.1-.9-5.3 1-1 3.3.4 4 2.5zm-21.3 1.6c1.5 1.6 1.5 2.1.3 3.8-1.4 1.8-1.5 1.8-3.5 0-1.6-1.4-1.8-2.3-1-3.7 1.2-2.4 2.2-2.4 4.2-.1zm-188 1.9c-4.9 7.9-12.5 15.5-14 14-.6-.6 5.4-9.4 9.6-14 1.3-1.5 3.3-2.7 4.3-2.7 1.8 0 1.8.1.1 2.7zm20.7-1.2c0 .8-.4 1.5-1 1.5-.5 0-.7-.7-.4-1.5.4-.8.8-1.5 1-1.5.2 0 .4.7.4 1.5zm144.7.1c.8 2.1-1.3 4.2-2.8 2.7-1.3-1.3-.5-4.3 1.1-4.3.6 0 1.3.7 1.7 1.6zm31.9-.5c1 1.7-1.3 3.6-2.7 2.2-1.2-1.2-.4-3.3 1.1-3.3.5 0 1.2.5 1.6 1.1zm45.4 1.5c1.1 2.9-.4 6.6-3.9 9.8-2.2 2-2.2 2-4.3-.2l-2.2-2.1 3.5-5.1c3.8-5.6 5.5-6.2 6.9-2.4zm-296 .9c-1.8 2.1-15.2 8.5-16.4 7.8-1.3-.9 2.9-4.1 6.7-5.1 1.8-.5 4.8-1.9 6.7-3 3.7-2.3 5-2.2 3 .3zm228.4-.9c.9 2.4.7 3.4-.7 3.4-1.9 0-3.6-2-3-3.6.7-1.9 2.9-1.8 3.7.2zm-21.4.7c0 .7-.8 2.4-1.7 3.7-2.8 4.1-7.3 9.1-7.3 8.1 0-.5.4-1.2.9-1.5.4-.3 1.1-2 1.5-3.8.9-4.7 6.6-10.3 6.6-6.5zm-193.4 2.2c-.3.8-2.4 3.9-4.6 6.8-2.9 4-5 5.7-7.9 6.5-4.8 1.5-5.1 1.5-5.1-.1 0-3.2 6.2-9.9 11.3-12.3 6.1-2.8 7.1-2.9 6.3-.9zm253.9.5c.3.5.1 1-.4 1-.6 0-1.1-.5-1.1-1 0-.6.2-1 .4-1 .3 0 .8.4 1.1 1zm-19.9 1.1c1 1.7-1.3 3.6-2.7 2.2-1.2-1.2-.4-3.3 1.1-3.3.5 0 1.2.5 1.6 1.1zm11.2 1.6c.4 2.8-1.8 3-4.1.5-2-2.1-1.2-3.4 1.8-3 1.2.2 2.1 1.2 2.3 2.5zm18.9-.1c-.9.9-2.8-.6-2.1-1.8.4-.6 1-.6 1.7.1.6.6.8 1.3.4 1.7zm-51.8-.2c.7.9.8 1.7.2 2-1.4.9-4.1-.4-4.1-2 0-1.8 2.4-1.8 3.9 0zM577 519c0 1-.6 2.4-1.2 2.9-6.4 5.3-10.8 7.9-10.8 6.5 0-1.3 2.5-5.2 5.3-8.2 3.5-3.6 6.7-4.3 6.7-1.2zm140.8-.3c-.2 1-1.4 1.9-2.6 2.1-2.1.3-2.2.1-1.2-1.7 1.3-2.6 4.3-2.8 3.8-.4zm23.2 1.4c0 1-.4 1.9-.9 1.9-1.4 0-3.3-2.8-2.7-3.9 1-1.6 3.6-.1 3.6 2zm-199.9-.3c-.5.9-3 4.5-5.4 7.9-3.5 4.7-5.6 6.5-9.1 7.8-2.6 1-4.9 1.6-5.1 1.3-.3-.2 1.8-3.6 4.5-7.5 3.9-5.5 5.9-7.5 9.7-9.1 5.9-2.6 6.6-2.7 5.4-.4zm-61.3 1.9c-.7 3.7-10.9 6.3-11.6 3.1-.2-1.3.9-2.1 4.5-3.2 6.4-1.9 7.5-1.9 7.1.1zm323.7 3c-3.5 3.1-5.1 1.9-2.4-1.8 1.7-2.5 2.3-2.8 3.6-1.7 1.3 1.1 1.2 1.5-1.2 3.5zm15-1.6c0 2.6-2.9 3.9-4.8 2-.7-.7-.5-1.6.8-3.1 2.3-2.5 4-2.1 4 1.1zM560 527c-3.7 5.7-5.9 7.5-10.8 8.5l-3.4.7 1.6-2.9c2.8-5 6-8.1 10.6-10.2 2.4-1.1 4.6-1.8 4.9-1.6.2.2-1.1 2.7-2.9 5.5zm-63-4.2c0 2.6-5.7 8.4-11.5 11.6-9.9 5.4-12 4.4-7-3.1 2-2.9 4.1-4.4 9.3-6.5 7.1-2.8 9.2-3.3 9.2-2zm-34 2.3c0 2.5-2.3 4.9-5.8 5.9-7.2 1.9-8.7 1.1-5.4-3 2.3-2.8 11.2-5.2 11.2-2.9zm56.9 5.1c-2.8 5.4-8.9 11.5-12.5 12.6-2.1.6-4 .9-4.2.7-.6-.6 4.4-7.8 7.6-11 2.1-2.1 6.2-4 9.5-4.4.4-.1.2.9-.4 2.1zm304 .1c1.3 1.6.5 2.7-2 2.7-2.4 0-3.5-2-1.8-3.1 1.9-1.2 2.5-1.1 3.8.4zm-348.9.2c0 .2-1.2 2.4-2.7 4.9-2.4 4-3.3 4.6-7.1 5.2-2.3.3-4.6.4-4.9 0-.4-.3 0-2.1.9-3.8 1.1-2.4 2.7-3.6 6.4-4.9 5-1.8 7.4-2.2 7.4-1.4zm67 2.3c0 1.6-6.8 8.2-8.4 8.2-1.5 0-1.5-.3-.1-2.9 2.2-4.3 8.5-8.2 8.5-5.3zm294.7 2.9c-1.4 1.4-1.9 1.5-2.9.4-1.1-1-.9-1.5.6-2.7 2.7-2 4.7 0 2.3 2.3zM566 533.9c0 .4-1.6 2.9-3.6 5.5-2.6 3.4-4.2 4.6-5.7 4.4-3.3-.5-3-2.1 1.1-6.6 3.5-3.8 8.2-5.7 8.2-3.3zm6 2.6c0 2.4-2.4 4.5-3.6 3.2-.5-.5 2.4-5.7 3.2-5.7.2 0 .4 1.1.4 2.5zm-115.7-.9c.4.4-.1 2-1 3.5-1.5 2.6-2.3 2.9-6.5 2.9-2.6 0-4.8-.3-4.8-.8.1-1.9 3.1-4.3 6.6-5.1 5.2-1.2 5-1.2 5.7-.5zm45.7 0c0 .4-1.7 2.9-3.7 5.6-3.5 4.6-9.1 7.6-11.5 6.2-1.4-.9 5.3-9.5 8.6-11 3.3-1.4 6.6-1.8 6.6-.8zm46.4 6.3c-2.7 2.7-10.4 5.9-10.4 4.2 0-1.9 3-4.3 7.5-6 2.8-1.1 5.2-1.8 5.4-1.6.2.2-1 1.7-2.5 3.4zm-108-1.5c-.6 1.7-4.9 2.4-8.4 1.5l-2.5-.6 2.5-1.1c3.8-1.6 9.1-1.5 8.4.2zM524 543c-.6 1.1-2.3 2.2-3.8 2.6-1.5.3-3.5.8-4.6 1.1-3.5 1-1.1-2.1 3.3-4.4 4.9-2.5 6.6-2.2 5.1.7zm-40-1.3c0 .5-1.5 2.5-3.3 4.6-2.5 2.9-4.2 3.9-8.2 4.6-2.7.5-5.2.8-5.4.5-.2-.2.8-2.1 2.2-4.3 1.9-2.8 3.6-4.2 6.4-4.9 4.7-1.2 8.3-1.4 8.3-.5zm357 .3c0 .5-.7 1-1.5 1s-1.5-.5-1.5-1c0-.6.7-1 1.5-1s1.5.4 1.5 1zm-375 3c0 1.7-5.2 9-6.4 9-.6 0-2.8.3-4.8.6-4.6.8-4.9-.5-1.3-5.8 2.4-3.6 3.3-4 10.8-4.6.9-.1 1.7.3 1.7.8zm392.8 2.2c.3 1.5-.4 1.8-3.7 1.8-4.7 0-6.2-1.6-2.9-3 3.3-1.3 6.2-.8 6.6 1.2zm-438.4-.4c.3.5-.4 2.3-1.4 4-1.7 2.8-2.4 3.1-4.7 2.6-4.4-1-4.9-2.1-2.3-4.9 2.3-2.4 7.3-3.4 8.4-1.7zm14.5.1c1.2.8 1 1.6-1.4 4.6-2.6 3.4-3.1 3.7-6.7 3.2-2.2-.3-4.2-.8-4.5-1-.8-.9 3-6.6 4.6-7 2.9-.8 6.6-.7 8 .2zm14.4.8c-.3 1-1.5 3-2.5 4.5-1.6 2.3-2.7 2.8-6.4 2.8-4.9 0-5.2-.4-2.8-4 2.6-3.9 4.5-5 8.6-5 3.1 0 3.6.3 3.1 1.7zm80.7-.9c0 1.3-4.9 5.6-5.6 5-.9-.9 2.7-5.8 4.2-5.8.8 0 1.4.4 1.4.8zm-26.2 2.8c-.9.9-2.7 1.4-4.4 1.2l-2.9-.4 2.5-1.1c1.4-.7 3.4-1.2 4.5-1.2 1.8-.1 1.8 0 .3 1.5zM515 552c0 1.5-6.6 7.7-8.9 8.3-3 .8-3.6-1.1-1.4-4.1 3-4.1 10.3-7 10.3-4.2zm-29 2c-2 1.3-5.3 1.3-4.5 0 .3-.6 1.8-1 3.3-1 2.1 0 2.4.2 1.2 1zm375.4.9c.3.5-.1 1.1-.9 1.5-1.8.6-4.5-.2-4.5-1.5 0-1.2 4.7-1.2 5.4 0zm210.2 2.4c-.8 3.5-6.7 16-7.2 15.5-.2-.3 1.2-4.4 3.2-9.1 3.6-8.5 5.2-11 4-6.4zm-599.6-.6c0 .3-1.1 2.1-2.6 4-2.1 2.8-3.1 3.3-6.5 3.3-4.4 0-5.1-1.6-2-4.4 2.7-2.5 11.1-4.7 11.1-2.9zm25.8.5c-.5 1.5-8.7 6.3-9.4 5.5-.9-.8 1.8-4.5 4.1-5.6 2.9-1.4 5.7-1.3 5.3.1zm-85.8.8c1.2.8.9 1-1.2 1-1.5 0-3-.5-3.3-1-.8-1.3 2.5-1.3 4.5 0zm15 2c0 .5-1.3 1-2.9 1-1.7 0-3.3-.5-3.6-1-.4-.6.8-1 2.9-1 2 0 3.6.4 3.6 1zm27.6.1c.3.6.2 1.5-.3 2-1.4 1.4-6.7 2-8.3.9-1.3-.9-1.2-1.2.4-2.5 2.3-1.7 7.2-2 8.2-.4zm-59.7.8c2.5 1.6-.6 4.1-5 4.1-3.9 0-4.4-.5-3.3-3.4.7-1.8 5.9-2.2 8.3-.7zm44.1.1c0 .5-1.6 1-3.5 1s-3.5-.5-3.5-1c0-.6 1.6-1 3.5-1s3.5.4 3.5 1zm43-.1c0 2-7.5 5.8-8.4 4.2-1.1-1.7 2.5-5.1 5.5-5.1 1.6 0 2.9.4 2.9.9zm-73.3 2.5c.3.3.3 1.2 0 2.1-.8 2-10.7 2.2-10.7.2 0-2.6 2.4-3.9 6.3-3.4 2.1.3 4.1.8 4.4 1.1zM878 563c0 .5-.9 1-2.1 1-1.1 0-1.7-.5-1.4-1 .3-.6 1.3-1 2.1-1s1.4.4 1.4 1zm-457.1 1.9c.8.5 1.1 1.6.8 2.5-.8 2-8.7 2.3-8.7.3 0-3.1 4.7-4.8 7.9-2.8zm14.1 2.4c0 3.2-5.5 4.9-8.9 2.8-1.2-.8-1.2-1.2-.2-2.5 1.7-2 9.1-2.2 9.1-.3zm12.5 1c0 .7-6.6 3.6-8.2 3.7-.8 0-.1-2.8.9-3.8 1.4-1.4 7.3-1.2 7.3.1zm-60.2.7c1.9 0 2.3 2.5.5 3.6-1.6 1-7 .6-8.2-.6-1.5-1.5 1.5-4.2 3.8-3.6 1.2.3 2.9.6 3.9.6zm681.7 11.7c-1.5 6.7-3.8 17.6-4.9 24.3-1.2 6.8-2.6 13.1-3.1 14.1-1 1.8-6.6 3.9-10.8 3.9-4.4 0-4.2-1.4 3.9-26.2 4.5-13.6 5.9-15.9 7.3-12.2.5 1.3.9 1.4 2.1.4.8-.7 1.5-1.9 1.5-2.7 0-1.7 6-14.7 6.5-14.1.2.2-1 5.8-2.5 12.5zM881.5 570c.3.5.1 1-.4 1-.6 0-1.1-.5-1.1-1 0-.6.2-1 .4-1 .3 0 .8.4 1.1 1zm-479.2 2c.5.4.1 1.5-.9 2.4-1.2 1.2-2.5 1.5-4.8 1-4.5-.9-5.5-2.2-3.1-4 1.9-1.4 7-1.1 8.8.6zm11.6 1.6c.2.2.1 1-.2 1.9-.4.9-1.9 1.5-4.2 1.5-3.9 0-4.2-.5-1.8-3.2 1.4-1.6 4.5-1.7 6.2-.2zm758.1 2.1c0 2.4-.8 4.5-2.2 6-3.4 3.6-3.8 2.7-1.6-3.7 2.3-6.8 3.8-7.7 3.8-2.3zm-749.8.5c-.7.7-1.2.8-1.2.2 0-1.4 1.2-2.6 1.9-1.9.2.3-.1 1.1-.7 1.7zm699.9 3.5c-.9 1.6-1 1.5-1.1-.8 0-1.4.3-2.9.8-3.3 1.2-1.2 1.4 2.2.3 4.1zM380.6 577c2.4.9 2.6 1.3 1.3 2.5-1.7 1.7-8.9.9-8.9-1 0-2.7 2.9-3.2 7.6-1.5zm15.3 2.6c1.2 1-1.6 2.4-4.9 2.4-4.4 0-5.9-1.4-3.3-2.9 1.5-.8 7-.5 8.2.5zm503.6-.6c-.3.5-1.3 1-2.1 1s-1.2-.5-.9-1c.3-.6 1.3-1 2.1-1s1.2.4.9 1zm-568.7 4.3c1.8 1.4-.4 3.7-3.5 3.7-2.5 0-3.9-2-3-4.4.6-1.5 4.1-1.1 6.5.7zM405 582c0 .5-.9 1-2 1s-2-.5-2-1c0-.6.9-1 2-1s2 .4 2 1zm713.5 1c.3.6-.1 1.3-1 1.6-1.9.8-3 0-2-1.5.8-1.4 2.2-1.4 3-.1zm-215.1 1.6c.9.3 1.6 1.5 1.6 2.6 0 1.8-.4 2-3.2 1.4-4.2-.8-5.8-2.4-3.8-3.6 1.8-1.1 3.2-1.2 5.4-.4zm-556.7 1.8c.3.3 0 1.2-.7 2.1-1.4 1.7-4.7 1.9-8.5.5-2.3-.9-2.5-1.3-1.4-2.6 1-1.2 2.5-1.5 5.7-1.1 2.3.2 4.6.7 4.9 1.1zm11.3 1.9c0 2.1-2 3.5-4.1 3-1.9-.5-2.5-2.4-1.2-3.6 1.2-1.2 5.3-.7 5.3.6zm14.5 1.7c0 1-1.2 1.6-3.9 1.8-4.9.4-6.7-.3-6-2.3.9-2.2 9.9-1.7 9.9.5zm14.3.2c-.3.7-1.7 1.3-3.3 1.3-1.6 0-3-.6-3.2-1.3-.3-.8.7-1.2 3.2-1.2s3.5.4 3.3 1.2zm-62.3.8c.6 1-2.9 5-4.4 5-3.6 0-5.2-2.5-2.9-4.8 1.4-1.4 6.4-1.6 7.3-.2zm15.4 2.6c.2.2.1 1-.2 1.9-.5 1.1-2.1 1.5-6.2 1.5-5.7 0-6.6-.8-4-3.3 1-1.1 2.7-1.4 5.7-1 2.4.3 4.5.7 4.7.9zm12.1 2.9c0 1.8-4.8 3.1-6.2 1.7-1.6-1.6 0-3.2 3.3-3.2 1.9 0 2.9.5 2.9 1.5zm10.4-.9c1.3.5 1.4.9.5 2-.9 1.1-1.5 1.1-2.5.3-.8-.6-1.1-1.5-.8-2 .6-1.1.8-1.1 2.8-.3zm846.1.4c.4.6.1 1.8-.6 2.6-1.4 1.7-3.1 0-2.2-2.3.6-1.6 1.9-1.7 2.8-.3zm-283.9 3.5c1.8 4.5 1.8 4.5-1.2 4.5-3.3 0-6.1-1.5-7.4-4-1.5-2.8-.5-4 3.6-4 3 0 3.7.4 5 3.5zm-592.7 2.1c.2.2.1 1-.2 1.9-.8 2-4.7 1.9-7.6-.2-2.3-1.6-2.3-1.7-.5-2.4 1.7-.7 7.3-.2 8.3.7zm308.5 4.5c-2.5 2.8-8.9 4.5-10.9 2.9-2.5-2-1.8-2.9 3.8-4.5 2.8-.8 5.9-2 6.7-2.5 2.2-1.4 2.6 1.7.4 4.1zm-295.9-3.2c.3.5.1 1.2-.5 1.6-1.4.9-5.2-.4-4.5-1.6.8-1.2 4.2-1.2 5 0zM309 604c1.3.9 1.3 1.1 0 2-.8.5-2.8 1-4.4 1-2.8 0-2.9 0-1.1-2 2-2.2 3.3-2.4 5.5-1zm281.5 1.9c-1 1-4.6 1.5-8 1.2-1.7-.1-1.8-.3-.5-1.1 2-1.3 9.7-1.3 8.5-.1zm32.9 3.6c-2 3.1-8.4 4.9-14.1 4.1-4-.5-8.3-2.4-8.3-3.6 0-.3 3.5-.6 7.8-.6 4.7-.1 9.1-.7 11.2-1.7 4.3-1.9 5.4-1.3 3.4 1.8zm-27.7.7c-.3 3-.8 3.4-4.5 4.2-4.9 1-10.8-.8-8.1-2.5.7-.5 2.8-.9 4.5-.9 1.8 0 4.2-.9 5.5-2 3.1-2.5 3.1-2.5 2.6 1.2zm333.3.3c1 1.2 1 1.9.2 2.7-1.5 1.5-4.8-1.4-3.8-3.1 1-1.5 2.1-1.4 3.6.4zm-287 1.3c0 4-7.8 8.2-11.6 6.2-1.7-1-2.8-.8-6 .9-4.6 2.5-11.5 2.7-19.2.7-4.5-1.1-5.4-1.1-6.4.2-1 1.1-.9 1.7.7 2.8 1 .8 2.3 1.4 2.9 1.4.6 0 .5.5-.2 1.2-4.2 4.2 2.2 7.4 12.6 6.5 4.8-.5 6.3-.4 5.5.4-.7.7-3.8 1.4-7 1.8-4.3.4-5.9 1-6.1 2.3-.7 3.6 10.7 2.4 19.7-2.2 7.2-3.7 13.1-4.9 13.1-2.6 0 2.2-4.2 4.7-9.2 5.3-2.4.3-5.3 1.5-6.6 2.7-1.5 1.3-3.7 2.1-6 2.1-4.6 0-5.8 3-1.8 4.4 1.4.6 2.6 1.9 2.8 3.3.3 2 .8 2.3 4 2.1 2.1-.1 5.7-1.2 8-2.3 5.2-2.5 8.1-2.6 7.6-.3-.7 4.1-17.7 8.2-28.4 6.8-5.6-.7-7.5.4-5.4 3 1.8 2.1 14.8 1.9 23.5-.4 3.9-1 7.7-2 8.5-2.2 1-.3 1.5.4 1.5 2.1 0 2.1-.8 2.8-5.5 4.3-7.2 2.5-16 3.3-18.9 1.8-2.5-1.4-6.1-.6-6.1 1.4 0 2.2 6.6 3.8 12.7 3 5.2-.6 5.5-.6 4.8 1.3-.5 1.7-.1 2.1 2.2 2.4 3.1.3 4.7 3.8 1.8 3.8-.9 0-1.9.9-2.2 2-1.2 4.7-13.1 6.7-20.7 3.5-2-.9-4.1-1.3-4.6-1-1.4.9-11.2-1.5-14.9-3.6-3.6-2.1-6.1-1.9-6.1.4 0 2.6 3.5 4.6 11 6.3 7.1 1.7 7.3 1.8 4.1 2.5-2.1.4-5.3.2-8.5-.7-7.5-2.1-8.1-2.1-8.1.1 0 2.6 3.9 4.4 10 4.6 11.8.3 12.3 3.1.5 3-4.7 0-7.7-.5-9.5-1.7-2.7-1.8-5.5-1.3-5.5 1 0 3.4 4.6 4.9 15.5 4.9 9.5-.1 10.5.1 10.5 1.8 0 2.4-5.1 3.4-12.7 2.4-6-.7-13.3-3.2-14.4-4.8-1.3-1.9-.3-31.3 1.4-41.2 1.6-9.2 3.6-17.5 4.3-17.5 1.9 0 3.4 1.7 3.4 4 0 1.9.9 3.6 2.5 4.8 1.4 1.1 2.5 2.9 2.5 4 0 1.6.9 2.2 4 2.7 4.9.8 7-.5 6.8-4.3-.1-1.5 0-3.4.3-4.2.3-1.2-.6-1.5-4.5-1.5-3 0-5.1-.5-5.3-1.3-.3-.8.6-1.2 2.5-1.2 4 0 6.6-2.5 5.2-5-.6-1-1-3-1-4.3 0-2.3-.3-2.4-6.2-2.3-5.7.1-7.1-.5-6.9-3.1 0-.4 2.4-.8 5.2-1 5-.3 7.9-1.6 7.9-3.4 0-.5-2.5-.6-5.5-.3-4.2.5-6 .3-8-1-3.6-2.3-2.3-3.6 2.5-2.5 4.2 1 11-.9 11-3 0-.6 1.9-.1 4.1 1.1 7.1 3.7 19.1 2.1 36.9-4.7 4.6-1.8 5-1.8 5 .3zm470.6.9c-.3 1-1.2 6-2.1 11-1.6 8.7-2 9.5-5.4 12.2-2 1.5-4.7 3.2-6 3.6-2.2.7-2.3.6-1.6-3.6 1.1-7.3 3.4-14.6 5-15.9.8-.7 1.5-1.8 1.5-2.4 0-1.4 6.1-6.5 7.8-6.6.8 0 1.1.7.8 1.7zm54.4-.3c0 2.7-2.1 17.1-3.7 25.4-1.5 7.7-1.9 8.5-5.2 10.8-3.6 2.4-6.1 3.1-6.1 1.6 0-.4.6-3.2 1.4-6.2.8-3 1.7-7.9 2.1-10.8.4-3 1.5-7.7 2.5-10.5 2.7-7.5 9-14.8 9-10.3zm46.9 18.2c-.2 9.4-.6 12-2 13.8-2 2.5-7.6 5.3-8.6 4.2-.4-.3-.1-4.1.6-8.5.6-4.3.9-8.5.6-9.3-.6-1.6 6.8-11.8 8.6-11.8.7 0 .9 4.1.8 11.6zm-958.2-9.5c1.3 1.3-1.1 7.5-3.3 8.3-2.6 1-3.6-2-1.7-5.8 1.7-3.7 3.1-4.4 5-2.5zm386.3-.5c0 2-2.5 4.4-6 5.8-5.6 2.2-7.2 2.1-6.8-.6.2-1.6 1.6-2.6 5.3-3.9 5.3-1.9 7.5-2.2 7.5-1.3zm305.7 1c.5 1.6-6.5 2.3-7.7.9-.6-.7-.7-1.5-.3-1.9 1.1-1.1 7.6-.2 8 1zM610 626c0 .6-1.1.8-2.7.4-4-1-4.1-1.4-.5-1.4 1.8 0 3.2.5 3.2 1zm485 1.7c0 1.6-.6 5-1.3 7.8l-1.3 5-5.2.3c-3 .2-6.2-.3-7.8-1.1l-2.6-1.4 7.8-6.6c4.2-3.7 8.3-6.7 9.1-6.7.8 0 1.3 1.1 1.3 2.7zm-831-.4c0 1.9-2.1 3.7-4.2 3.7s-2.2-.4-.8-3.1c1.2-2.1 5-2.6 5-.6zm887.7.2c.5 1.4-.7 7.6-3.8 19.7l-1 3.8H1136c-6 0-11.1-.4-11.4-.9-.4-.5 2.4-3.3 6.1-6.2 3.7-2.9 9.4-8.1 12.7-11.6 6.3-6.7 7.3-7.2 8.3-4.8zm-909.3 1.2c.7 1.8-2 6.3-4.2 7.1-1.6.5-1.5-1.1.2-5.3 1.6-3.8 3-4.4 4-1.8zm-19.4 3.1c0 2.5-4.4 7.7-5.8 6.8-1.6-1-1.5-2.6.3-7 1.4-3.2 1.8-3.5 3.5-2.6 1.1.6 2 1.8 2 2.8zm728-.8c0 2.3 0 2.3-3.5 1-3.1-1.2-2.4-3 1.1-3 1.7 0 2.4.5 2.4 2zm-702.5 3c-.3.5-1 1-1.6 1-.5 0-.9-.5-.9-1 0-.6.7-1 1.6-1 .8 0 1.2.4.9 1zm-19.5 2.7c0 2-2.8 5.3-4.7 5.3-2 0-1.6-2.1.9-4.7 2.5-2.7 3.8-2.9 3.8-.6zm754 2c.6 1.6 2 4.5 3.1 6.6 2.7 4.8 1.9 6.9-2.2 6.5-3.9-.4-5.9-3-4.3-5.5 1.6-2.6.6-4.3-2.6-4.3-3.8 0-5.7-4.4-2.2-5.3 4.9-1.3 7.2-.7 8.2 2zm-774.5 3.7c-1.7 2.6-4.5 3.6-4.5 1.6 0-.6.7-2.5 1.6-4.2 1.4-2.7 1.7-2.9 3.1-1.5 1.3 1.3 1.3 1.8-.2 4.1zm991.5 2.1c0 6.1-.2 6.5-2.8 7.9-3.5 1.8-12.5 3.1-14.9 2.1-1.5-.6-.2-2.1 7.2-9 4.9-4.6 9.3-8.1 9.7-7.9.4.3.8 3.4.8 6.9zm-231.2-5.3c2.1 2.1 1.4 4.8-1.2 4.8-2.7 0-5.6-2.4-5.6-4.6 0-1.7 5.1-1.9 6.8-.2zM639 640c0 2.8-9.7 7.6-11.6 5.7-1-1 2.7-5.6 4.9-6 4.1-.8 6.7-.7 6.7.3zm-424 2.9c0 1.3-2.9 3.5-3.7 2.8-.7-.8 1.5-3.7 2.8-3.7.5 0 .9.4.9.9zm889.5 4c.3 1 1.9 2.1 3.5 2.5 1.7.3 3 1.1 3 1.7 0 .8-1.9.9-6.2.4-8.9-1-10-1.8-5.7-4.4 4.2-2.6 4.6-2.6 5.4-.2zM974 649.6c0 .8-.9 1.4-1.9 1.4-2.2 0-3.5-1.5-2.7-2.9.9-1.3 4.6-.1 4.6 1.5zM180.5 654c.7 1.1-4.2 3.7-5.1 2.7-.9-.9 1.5-3.7 3.2-3.7.7 0 1.6.4 1.9 1zm825.1 1.1c.8 1.4-1.4 2.9-4.3 2.9-2.4 0-3.8-1.4-2.8-3 .8-1.4 6.2-1.3 7.1.1zm-13.3 2.4c.1.5-1.3 1.1-3 1.3-3.1.3-4.2-.6-2.6-2.2 1-1 5.3-.3 5.6.9zm35.3 7.6c1.8 2 1.8 2.1-.1 3.5-2.8 2.1-6.2 1.7-8-.8-1.4-2.1-1.4-2.4.2-3.5 2.5-1.9 5.7-1.6 7.9.8zM670.5 667c.3.5-.3 1-1.4 1-1.2 0-2.1-.5-2.1-1 0-.6.6-1 1.4-1 .8 0 1.8.4 2.1 1zm-10.7.9c.9.5 3.2 1.5 5 2.1 3.8 1.5 3.8 1.8 1.1 6.5-1.7 2.8-2.7 3.5-4.3 3.1-1.2-.2-3.8-.8-5.8-1.1-3.1-.6-3.8-1.2-3.8-3 0-1.3 1.2-3.7 2.6-5.4 2.9-3.5 2.8-3.4 5.2-2.2zm353.2 0c0 1.1-2.6 2.2-3.4 1.4-1.2-1.2-.5-2.3 1.4-2.3 1.1 0 2 .4 2 .9zM679.6 674c.5 2.5 1.4 3.2 4.8 4.1l4.1 1.1-3 2.4c-1.7 1.3-3.6 2.4-4.2 2.4-1.5 0-9.3-6.8-9.3-8.1 0-1.3 4.2-4.9 5.7-4.9.7 0 1.6 1.3 1.9 3zm385.4.1c1.2 2.2-.1 4.9-2.4 4.9-1.9 0-5.9-4.7-5.1-5.9 1.1-1.9 6.3-1.3 7.5 1zm-30.5.4c0 1.2-5 1.9-7.3 1-1.4-.5-1.4-.7-.2-1.6 1.9-1.2 7.5-.7 7.5.6zm18.5 3.5c2.6 2.6 1.8 4-2.5 4-2.4 0-3.8-.6-4.5-2-.9-1.7-.7-2.2 1.2-3 3.3-1.3 3.6-1.2 5.8 1zm85.2-.3c2.5 2.3 2.3 3.6-1.1 5.6-3.6 2.1-6.5 2.2-8.2.1-1.1-1.4-.8-2 2.1-4.5 4.1-3.3 4.7-3.5 7.2-1.2zm-505.7 3.5c-1.1 3.6-2.9 4.9-7.5 5.5-3.1.4-4.1.3-3.6-.5.4-.7 1.4-1.2 2.2-1.2 2.5 0 7.4-3 7.4-4.5 0-.8.5-1.5 1.1-1.5.6 0 .8.9.4 2.2zm555.5-1.3c0 1.5-1.6 2.2-3.4 1.5-2.5-.9-1.9-2.4.9-2.4 1.4 0 2.5.4 2.5.9zm-94 3.2c0 1.2-4.8 3.1-6.8 2.7-2.7-.5-2.4-2.6.5-4.1 2.8-1.5 6.3-.8 6.3 1.4zm74.9.3c1 1.2.8 1.7-.8 2.5-4 2.2-7.5.5-5.1-2.4 1.6-1.9 4.4-1.9 5.9-.1zM656 685.5c-.7.8-2.4 1.5-3.7 1.5-2.2 0-2.4-.2-1.3-1.5.7-.8 2.4-1.5 3.7-1.5 2.2 0 2.4.2 1.3 1.5zm-39.5 2.6c.6.6.4 1.5-.6 2.4-1.3 1.3-2.4 1.4-6.2.5-3.8-.8-8.7-3.8-8.7-5.3 0-.8 14.6 1.5 15.5 2.4zm530.5-1.7c0 1.5-2.1 2.6-5.1 2.6-2.4 0-2.5-1.6-.1-2.9 2.5-1.5 5.2-1.3 5.2.3zm-20.1.5c2.3 1.5.2 3.1-4 3.1-4.3 0-4.8-.6-2.1-2.6 2-1.6 4.1-1.7 6.1-.5zm-26.4 1.1c.3.5-.1 1-.9 1-.9 0-1.6-.5-1.6-1 0-.6.4-1 .9-1 .6 0 1.3.4 1.6 1zm-481.8 8.4c1.1 1.1-1.9 2.6-5.4 2.6-4.4 0-9.1-1.9-7.4-2.9 1.5-1 11.8-.7 12.8.3zm1.3 6.5l5.5.7-3 1.3c-4.5 2-16.1 2.7-18 1.1-1.2-1-1.3-1.6-.4-2.6 1.2-1.5 6.8-1.7 15.9-.5zm-31.3 2.7c12.4 1.3 9.6 5.6-3.2 4.7-8-.5-10.5-1.6-10.5-4.5 0-1.8.4-2 3.8-1.5 2 .3 6.5.9 9.9 1.3zM618 711c2.1 1.3.2 2.9-4.1 3.6-3.8.6-11.9-1.1-11.9-2.6 0-.5 2.6-1.1 5.8-1.3 3.1-.2 6.4-.4 7.2-.5.8-.1 2.2.3 3 .8zm-441.2 1.4c1.5.8 3.5 2.8 4.5 4.4 1.6 2.8 1.6 3.2.1 4.7-.9.9-2.9 1.9-4.5 2.2-3.8.7-4.3 1.7-2.6 4.5 1.9 3 0 7.7-3.7 9.8-3.6 1.9-5.8 0-3.3-2.8.9-1 1.7-2.6 1.7-3.6 0-3.2-3-2.9-7.7 1l-4.6 3.8-1.8-2.3c-2.5-3.1-2.4-3.8 1-5.6 1.6-.8 3.7-2.9 4.6-4.7 1.7-3.5 1.4-4-3.5-6.8-2.7-1.5-.2-2.3 4.1-1.2 4.7 1.2 7.5.4 10.3-2.7 2.3-2.5 2-2.5 5.4-.7zm417.6 2.2c.9.3 1.6 1.1 1.6 1.6 0 1.4-14.6.6-16.2-1-.9-.9.3-1.2 5.9-1.2 3.9 0 7.8.3 8.7.6zm24.6 3.8c0 .3-.7 1.2-1.6 2-1.9 1.9-9.6 2.1-12.7.3-2-1.1-1.8-1.2 2.8-1.8 6.8-.8 11.5-1 11.5-.5zm-21.6 3.2c2.8 1.1 1.7 3.3-1.9 4-3.2.6-9.7 0-15.2-1.3-1.3-.3-2.3-1.1-2.3-1.9 0-1.1 2-1.4 8.9-1.4 4.9 0 9.6.3 10.5.6zm-271.2 4.6c-1.7.8-2.6.8-3.4 0-.9-.9-.4-1.2 2.3-1.1 3.2 0 3.3.1 1.1 1.1zM615 726c1.2.8.9 1-1.3 1-1.6 0-2.6-.4-2.2-1 .8-1.2 1.6-1.2 3.5 0zm-14.7 4c.4 0 .7.4.7.9 0 1.2-14.3 3.3-17.6 2.5-3.4-.8-5.6-2.3-4.9-3.4.3-.4 5.1-.6 10.7-.4 5.7.2 10.6.4 11.1.4zm15.2 3.7c-.9 3.8-.9 3.8-6.1 2.7-3.1-.6-5.2-1.7-6.2-3.2l-1.4-2.2h14.4l-.7 2.7zm-32.7 5.3c.7 1.1 2 2 2.9 2 1.5 0 1.5.1-.1 1.9-1.6 1.7-1.5 1.9 1.9 2.4 2 .3 5.1 1.5 6.9 2.7l3.4 2-7 7c-3.9 3.9-7.6 7-8.2 7-.6 0-2.2 1.2-3.5 2.5-1.3 1.4-3.2 2.5-4.3 2.5-1.1 0-3.8 1.6-6.1 3.5-4.7 4-5.7 4.2-8.2 1.5-1.6-1.8-1.7-2.3-.5-4.6 1.9-3.5 11.4-11.4 13.8-11.4 1.1 0 2.5-.7 3.2-1.5 3.2-3.9-4-9.2-8.9-6.6-1.1.6-3.1 1.1-4.4 1.1-1.4 0-3 .7-3.7 1.5-.7.8-2.1 1.5-3 1.5-1 0-3.2.8-5 1.7-3.1 1.8-3.1 1.8-5.1-.6-1.8-2.2-1.8-2.5-.3-4.2.8-.9 5.5-3.4 10.2-5.5 21.9-9.5 23.8-9.9 26-6.4zM337 743.9c0 1-5 2.5-5.8 1.7-.3-.3.6-1 1.9-1.5 3.1-1.3 3.9-1.3 3.9-.2zm276 4.1c3.3 1.7 4 2.6 4 5 0 2.3-.4 3-2 3-1.3 0-2.6 1.3-3.9 3.9-1.1 2.1-2.7 4.1-3.5 4.4-.9.4-2.4 2.3-3.3 4.4-2 4.1-3.7 4.5-11.3 2.6-2.7-.7-3.6-1.4-3.8-3.5-.4-3.4 4.5-9.1 9.8-11.2 4.1-1.6 4.8-3.2 3-6.7-.9-1.6-.7-2.1 1.2-2.9 3.5-1.4 5.5-1.2 9.8 1zm-284.9 13c2 0 5.6-.7 7.9-1.5 2.3-.8 4.8-1.5 5.6-1.5 1.3 0 2.9 4.4 4 11.2.6 3.7.6 3.8-2.3 3.8-4 0-4.5-.7-2.7-4.2.9-1.7 1.3-3.3.9-3.6-1.3-1.4-4.1 1.8-6 6.9-1.8 4.7-2.5 5.4-5 5.7-1.7.2-3.9-.3-4.9-1.1-1.9-1.4-1.9-1.5.7-3.9 3.1-2.9 3.6-5.8 1-5.8-2.6.1-5.2 2.3-8.7 7.7-1.7 2.6-4.3 5.4-5.8 6.2-2.5 1.5-2.9 1.4-5.2-.8-2.9-2.7-2.6-4 1.5-6.3 3.3-1.9 3.7-5.3.8-7.1-1.5-.9-7.8 1.4-12.1 4.5-1.3.9-2 1-2.9.1-1.7-1.7 2.3-4.8 9.4-7.4 3.4-1.2 7.4-3.3 9-4.5l2.7-2.3 4.3 1.9c2.3 1.1 5.8 2 7.8 2zm212.9-1.5c0 1.6-2.7 3.2-3.7 2.2-.3-.4-.3-1.3 0-2.2.8-2 3.7-2 3.7 0zm50.8 17.1c3 .9 2.8 2.1-1 4.4-4.3 2.6-4.8 2.5-4.8-.8 0-4.2 1-4.8 5.8-3.6zm-34.8 3.3c0 .6-.4 1.3-1 1.6-.5.3-1-.1-1-.9 0-.9.5-1.6 1-1.6.6 0 1 .4 1 .9zM325 783c0 .5-.2 1-.4 1-.3 0-.8-.5-1.1-1-.3-.6-.1-1 .4-1 .6 0 1.1.4 1.1 1z"/><path d="M618.7 11.7c-.3.4-.1 3.3.4 6.3s.7 8.4.3 12c-.8 9.4-1.4 15.1-1.9 18.5-1 6.4-1.5 14.9-2.1 37.5-.3 12.9-.9 30.5-1.3 39s-.6 26.7-.4 40.5c.3 26.2.8 28.7 4.8 27.1 1.3-.5 1.6-1.3 1.1-3.4-2.4-10.4-2.8-20.1-2.1-59.7.9-57 1.3-68.7 2.5-75.5 2.1-11.6 3.4-35.3 2.2-39.4-.8-3-2.6-4.4-3.5-2.9zM602.3 14.2c-.9 1.6-2 24.6-2.9 63-.7 31.1 1.1 109.4 2.7 113.5 1 2.6 3.7 3 4.6.8.3-.9.1-3.5-.5-5.8s-1.4-11-1.7-19.2c-.3-8.3-.8-19.5-1.1-25-.8-13.8-.8-84.2 0-94 .3-4.4.8-11.8 1.2-16.5.3-4.7.9-10.2 1.4-12.2 1-4.6-1.6-7.9-3.7-4.6zM589.9 21.7c0 1-.2 5.6-.4 10.3-.1 4.7-.8 16.4-1.5 26.1-.8 12-1 32-.6 63.5.9 60.3 1.2 67.4 3 69.2 2.3 2.3 5 .7 4.2-2.6-.6-2.5-1.7-16-3.1-38.2-.6-9.2-.7-92.9-.1-97 .6-4 1.7-20 1.9-26.5.2-5-.1-6-1.5-6.3-1.2-.2-1.8.3-1.9 1.5zM576.6 33.9c-.3.5-.6 2-.7 3.3 0 1.2-.5 11.2-1 22.2-1.6 30.9-1.5 51.2.7 110.1.2 5.5.3 11.6.4 13.6 0 4.5 3.2 9 5 7.2.9-.8 1-3.1.2-9.5-.6-4.5-1.4-15.7-1.7-24.8-.4-9.1-.8-18.5-1.1-21-.8-9.5-.8-52.3 0-70.5 1.3-28 1.2-30.8-.1-31.2-.6-.2-1.4 0-1.7.6zM559.4 45.4c-.3.9-.4 21.3-.1 45.3.4 32.7.9 46.7 2.1 55.3.9 6.3 1.8 15.8 2.1 21 1 19.6 2.1 25.6 4.8 24.7 1.3-.4 1.3-2.8.3-15.7-.6-7.5-3.8-35.5-5.2-46.5-.3-2.2-.7-22.2-.8-44.4-.2-30.2-.5-40.6-1.4-40.9-.7-.2-1.5.3-1.8 1.2zM544.4 59.1c-1 1.6-.6 40.6.5 58.4 1.7 26 7.1 71.7 8.7 74.2 3.2 5 5.4 1.3 3.1-5-.8-2.3-1.8-7.1-2.1-10.7-.2-3.6-1.6-16.2-3-28-3-25.9-3.9-40.9-4-68.2-.1-15.3-.4-20.9-1.3-21.2-.7-.3-1.5 0-1.9.5zM530.4 68.7c-.7 3.5.1 32.5 1 36.8.2 1.1.7 8.3 1 16 .9 17.8 1.4 24.2 2.6 33.5.5 4.1 1.7 13.3 2.5 20.5 1.8 14.7 3 19.5 5.1 19.5 2.4 0 2.7-2.8 1-8.3-1.3-4.4-2.8-15.6-5.1-37.2-.5-4.6-1.3-14.9-2-25-.3-3.9-1-11.7-1.6-17.5-1.1-10.8-1.3-24.3-.6-34 .6-7.9-2.6-11.4-3.9-4.3zM515.3 76.6c-.6 1.6.2 31 1.1 37.9.3 2.2 1 9.4 1.6 16 2 21.6 8.8 60.1 11.3 63.9 3.3 5 5.5 0 2.6-6-1-2.2-2.1-6.2-2.4-8.9-.6-4.6-3.2-18.9-5.5-29.5-1.1-5.3-1.7-10.7-2.5-21-.3-4.1-1-11.3-1.6-16-.6-4.7-1.1-14.4-1.1-21.5 0-7.2-.2-13.8-.4-14.8-.7-2.1-2.3-2.2-3.1-.1zM500.7 82.6c-.4.4-.5 3.7-.2 7.3.2 3.6.7 10.8 1 15.9.2 5.2 1.1 13 1.9 17.5.8 4.5 2.1 13.6 3 20.2 2.1 15.3 8.4 47.9 9.8 51.1 1.5 3.2 4.4 3.1 5.2-.2.5-1.8-.2-4.4-2.3-8.7-1.7-3.6-3.5-9.4-4.1-13.7-.6-4.1-1.7-10.9-2.5-15-.7-4.1-1.8-10.7-2.4-14.5-.6-3.9-2-12.8-3.1-19.8-1.2-7.1-2.3-18.5-2.6-25.5-.5-11.9-1.7-16.6-3.7-14.6zM487.7 87.6c-2.5 2.5 4.1 53.3 11.7 90.4 4 19.5 4.9 22 7.1 22 2.6 0 2.9-2.9.7-8.3-2.1-5.5-7.9-29.3-8.7-36.2-.7-6.5-3.9-27.7-6-41-.8-4.6-1.3-11.7-1.4-19.1-.1-4.9-1.9-9.2-3.4-7.8zM474.4 100.8c-1.5 1-1.4 5.3.2 20.2 2 17.8 3.9 28.7 7.9 44.5 1.8 7.1 3.6 15 4 17.5 1.3 8.1 3.5 15.4 5.1 17 1.4 1.3 1.7 1.3 2.9-.4 1.2-1.6 1.2-2.3-.2-4.9-2.8-5.6-12.8-46.1-14.3-58.7-.6-4.7-1.3-10.2-1.6-12.3-.2-2.1-.5-4.1-.6-4.5-.1-.4.2-1.4.6-2.4.4-.9.3-3.3-.3-5.5-.6-2.1-1.1-5.2-1.1-7 0-3.4-.9-4.6-2.6-3.5zM459.3 117.7c.2 1.6 1.9 11.3 3.7 21.8 1.7 10.4 4.7 24.2 6.5 30.5 1.8 6.3 4.3 15.8 5.5 21 2.6 10.5 3.4 12.2 5.7 11.3 1.7-.7 1.4-2.8-1.5-11.8-4.1-12.2-9.5-31.1-9.9-34.5-.2-1.9-.8-4.9-1.2-6.5-.5-1.7-1.9-9.1-3.1-16.5-1.2-7.4-2.6-14.5-3.1-15.8-1.2-3.2-3.2-2.8-2.6.5zM800.1 117.6c-1.2 1.5-2.1 3.1-2.1 3.6 0 .4-3.8 6.7-8.5 13.8-4.7 7.1-10.1 16-12.1 19.6-2 3.7-5.3 9.5-7.3 12.8-5.9 9.7-19.1 33.2-19.1 34.2 0 .2-3.3 7.3-7.4 15.7-7.9 16.1-9.8 21.7-7.4 21.7 1.7 0 3.8-2 3.8-3.7 0-1.1 10.9-24.8 14.6-31.8 6.4-11.9 11.1-20.6 16.8-30.7 3.6-6.5 6.6-12.2 6.6-12.6 0-.5 1.4-2.8 3-5 1.7-2.3 3-4.4 3-4.6 0-.8 10.3-16 13.5-20.1 6.1-7.6 9-15.5 5.6-15.5-.5 0-1.9 1.2-3 2.6zM215.6 116.9c-.3.4.8 2.3 2.3 4 3.1 3.5 7.8 10.3 29.3 42.1 7.6 11.3 20.7 30.5 29.1 42.7 8.3 12.2 19.1 28.2 23.8 35.5 9.5 14.6 31.7 43.1 34.4 44.2.9.3 2.1.4 2.6 0 1.7-1 .9-3-2.7-6.5-3-2.8-17.4-20.5-25.2-30.9-1.1-1.4-5.1-7.7-9-14-4-6.3-11.6-17.8-17.1-25.5-8.7-12.4-13.9-20-33.4-49-2.6-3.9-5.1-7.5-5.6-8-1.4-1.8-8-11.4-16-23-4.1-6.1-8-11.3-8.6-11.7-1.4-1-3.3-1-3.9.1zM208.4 128.1c-.4.7 1.5 3.3 4.5 6.1 2.8 2.8 5.1 5.5 5.1 6s2 3.7 4.4 7.1c5 7.2 40.8 60.7 54.6 81.7 5.2 8 10.1 15.1 10.7 15.8.7.7 3.4 4.6 5.9 8.5 4.5 6.9 10.6 14.8 22.1 28.5 2.9 3.4 5.3 6.7 5.3 7.4 0 1.5 3.1 3.7 5.3 3.8 3.4 0 1.5-3.3-8.7-15.3-12.5-14.8-20.1-25.1-37.3-51.2-7.3-11-17.8-26.7-23.5-35-5.7-8.2-10.4-15.2-10.6-15.6-.3-.8-13.6-20.4-19.9-29.7-2.4-3.3-4.3-6.5-4.3-6.9 0-1.5-10.1-12.3-11.5-12.3-.8 0-1.7.5-2.1 1.1zM776.6 130.2c-.7 1.8-3.8 6.7-6.7 10.8-3 4.1-7 10-9 13s-6.6 10.2-10.4 15.9c-11.8 18-26.3 48.5-28 59l-.7 4.3-4.2-.8c-5.9-1.1-12-1.1-12.5.1-.2.5 1.1 1.3 3 1.6 1.9.4 6.8 1.5 10.9 2.4 4.1 1 8.6 1.8 9.9 1.9 3.4.1 3.8-2.2.6-3-2.3-.6-2.6-1-2-3.3.4-1.4.9-4.5 1.1-6.8.3-3.5 8.8-24.2 11.3-27.8.4-.6 1.4-2.6 2.1-4.5 1.8-4.5 20.4-34.8 29-47 7.3-10.4 10-15.1 10-17.5 0-2.7-2.9-1.6-4.4 1.7z"/><path d="M749.8 144.7c-6.3 9.3-16.8 26.1-16.8 26.8 0 .2-1.9 3.6-4.3 7.7-2.4 4-7.1 12.8-10.6 19.6-3.4 6.7-7.3 14.3-8.6 16.9-2.4 4.3-3.4 11.3-1.7 11.3 1.7-.1 3-1.7 4.2-5.5 3.7-11.5 31-61.3 40-72.8 6.2-8.1 8.3-11.5 7.5-12.7-1.4-2.3-3.5-.5-9.7 8.7zM731.3 144.8c-3.5 5.6-14.3 23.7-18.8 31.7-15.1 26.8-19.7 36.4-18.9 39.3 1.1 3.9 3.7 2.1 5.9-4.3 2.5-7 7.5-16.9 15.7-31.2 3.2-5.6 5.8-10.4 5.8-10.7 0-1.6 12.6-21.4 14.6-22.9 2.7-2.1 3.2-6.2.9-7.1-1-.4-2.6 1.3-5.2 5.2zM450.3 144.6c.4 1.6 2.3 8.7 4.2 15.9 7 25.8 9.7 36.1 10.4 40.3.9 4.7 3.2 7.9 5 6.8 1.7-1.1 1.3-6.5-.8-9.4-1-1.5-2.4-5.2-3.1-8.2-.7-3-2.5-9.6-4-14.5-1.6-5-3.8-13.3-5-18.5-3.1-13.7-3.3-14.4-5.4-14.8-1.6-.3-1.8 0-1.3 2.4zM695.6 149.5c-1.4 1.9-3.6 5.6-4.7 8.2-1.1 2.6-6.5 13.9-12.1 25-7.2 14.5-9.8 20.7-9.3 22.2 1.3 4.1 4.8 2.1 5.8-3.5.6-3 16.4-36.2 22.6-47.3 2.7-4.8 3.1-8.1 1.1-8.1-.4 0-1.9 1.6-3.4 3.5zM709.7 153.2c-1.8 3.5-5.7 10.3-8.5 15.1-8.2 14-19.3 37.8-19 40.7.5 4.1 3.1 3 4.7-2 1.6-5.4 2.3-7 10.4-23.5 6.9-14.1 11-21.3 16.4-28.8 1.9-2.7 3.2-5.5 2.9-6.3-1.1-2.9-3.6-1.2-6.9 4.8zM209.4 153.1c-.3.6.3 2.3 1.4 3.7 2.4 3.1 7.2 10.1 15 22.2 5.6 8.6 9.9 15 24.4 36.5 17.3 25.7 42.5 59.2 55.6 74 9.2 10.4 10.3 11.5 11.3 11.5.5 0 1.2-.7 1.6-1.6.4-1-1.1-3.3-4.5-6.7-5.6-5.7-28.7-33.8-33.2-40.4-.8-1.1-4.9-6.8-9-12.5-7.4-10.2-29.1-42-34-49.7-1.4-2.2-5.5-8.4-9.1-13.8-3.6-5.4-8.1-12.5-9.8-15.8-4.2-7.8-7.7-10.5-9.7-7.4zM204.4 174.5c-.4.8 2.2 5.2 6.4 10.7 3.8 5.1 10 13.8 13.7 19.3 15.2 22.4 22 31.6 44.2 59.7 15.1 19.3 30.3 36.7 35.6 40.8 2.6 2.1 5.7 2.1 5.7.1 0-.5-2.2-2.7-4.8-4.9-5.9-5-20.3-21.2-30.8-34.7-4.2-5.5-8-10.2-8.3-10.5-.7-.6-20.9-27.3-23.1-30.6-.8-1.2-6-8.7-11.5-16.6-5.4-7.8-12.8-18.6-16.2-23.8-7.5-11.1-9.6-13-10.9-9.5zM202 198c-1.4.8 3.1 7.7 21.4 32.5 11.4 15.5 39.7 51.4 44.4 56.4 1.5 1.5 8.7 9.2 16.1 17 7.3 7.7 13.6 14.1 14 14.1.3 0 1.2-.4 2-.9 1.9-1.2.7-2.9-6.9-9.7-8.2-7.5-23.1-23.8-34-37.4-4.6-5.8-8.9-11-9.5-11.6-9.8-10.8-40.5-53.3-41.9-58-.7-2.4-3.6-3.6-5.6-2.4zM199.4 213.4c-.3.8 0 2.5.7 3.8 1.7 3.2 20.4 29.3 25.3 35.2 2.3 2.7 5 6.2 6.1 7.7 5 6.8 19.1 23.7 32 38.3 7.7 8.7 16 18.5 18.5 21.7 4.1 5.5 7.1 7.2 8.5 4.9.8-1.2-1.2-3.7-11.4-14.9-13.9-15.2-26.5-29.7-31.1-35.7-2.5-3.3-4.7-6.1-5-6.4-3.3-3-23.3-29.5-31.1-41.1-5.5-8.2-10.5-14.9-11-14.9s-1.2.6-1.5 1.4zM621.1 226c-12.4 3.2-27.9 8.6-38.6 13.5-15.6 7.1-22.2 10.5-29.2 15.2-10.1 6.6-15.1 12.3-10.7 12.3.8 0 2.6-1.3 4-2.9 6.7-8 45.1-25.7 71.4-33.1 15.6-4.3 18.3-5.3 18.8-6.8.6-1.8-3-1.4-15.7 1.8zM571 228.1c-4.7 1.7-8.9 3.5-9.4 4-.6.5-1.6.9-2.3.9-1.5 0-24.1 9.9-39.9 17.5-11.2 5.4-18.4 10.5-18.4 13.1 0 2.6 6.5.8 8.3-2.3 1.2-1.9 30.1-16 50.8-24.7 10.3-4.4 21.7-7.8 22.4-6.7.5.8-10.7 6.3-20.5 10.1-10.8 4.2-35.8 16.9-39.4 20-5.9 5.2-3.9 7.2 2.5 2.4 4.8-3.6 24.1-13.2 40-19.9 14.4-6 21.9-10 21.9-11.5 0-.6-.4-1-1-1-.5 0-.9-1-.7-2.3.3-3.3-4.2-3.2-14.3.4zM512.4 234.7c-3.8 1.9-8.9 4.8-11.4 6.3s-10.3 5.8-17.5 9.5c-12.4 6.5-20 11.9-18.9 13.6.7 1.2 5.3-.8 8.9-3.9 1.7-1.6 13.1-8.1 25.3-14.6C511 239.1 521 233.4 521 233c0-2.1-2.1-1.7-8.6 1.7zM539.5 231.9c-.6.5-3.9 2.1-7.5 3.7-3.6 1.5-7.2 3.4-8.1 4.1-.8.7-2.3 1.3-3.2 1.3-.9 0-5.8 1.9-10.9 4.2-15.9 7.3-26.8 14.3-26.8 17.4 0 2.1 1.3 1.7 5.5-1.6 3.6-2.9 33.3-18 35.3-18 .5 0 4.1-1.6 8.1-3.5 3.9-1.9 7.5-3.5 8-3.5 1.3 0 4.2-3.6 3.4-4.3-.9-1-2.7-.9-3.8.2zM194.4 233.1c-.3.6.5 2.5 1.8 4.3 7.4 10.6 36.1 46.8 44.9 56.8 5.7 6.4 16 18 22.8 25.7 11.3 12.7 15.3 16.3 16.8 14.8.7-.8-1.7-5-4.3-7.2-2.6-2.3-22.7-24.4-35.4-39-9.3-10.8-37.1-46.7-39.8-51.7-1.9-3.3-5.7-5.4-6.8-3.7zM611.5 237.4c-2.8 1.4-8.4 3.9-12.5 5.6-17.2 7.1-42 21-42 23.7 0 1.9.5 1.8 9.4-3.6 11.9-7.2 24.6-13.7 33.4-17.2 11.1-4.4 18.2-8.1 18.2-9.6 0-1.8-.9-1.7-6.5 1.1zM474.5 244.3c-12.2 6.3-15.5 8.5-15.5 10.3 0 1.9.1 1.9 6.7-2.1 3.2-1.9 9.2-5.1 13.3-7.2 6.8-3.5 10-6.4 6.8-6.2-.7 0-5.8 2.4-11.3 5.2zM621.5 241.4c-1.1.7-7.3 3.4-13.8 6-18.9 7.4-29.7 13.7-29.7 17.2 0 2 .4 1.8 5.4-2 2.4-1.8 9.9-5.6 16.7-8.5 20.9-8.7 27.8-12.6 24.2-13.8-.5-.2-1.7.3-2.8 1.1zM645 242c-1.4.4-6.2 2-10.7 3.4-4.5 1.5-11.6 4.2-15.7 6.1-9.4 4.3-22.6 13.1-22.6 15 0 1.9.9 1.9 3.2-.2 1-.9 2.7-2.1 3.7-2.7 1-.6 4.5-2.7 7.7-4.7 7.9-4.7 26.5-12 36.7-14.3 1.5-.4 2.7-1.3 2.7-2.1 0-1.6-1.2-1.8-5-.5zM655 246.6c-3.6 1.3-7.4 2.9-8.5 3.4-1.1.5-6.7 2.8-12.4 5-13.4 5.3-17.5 7.4-20.5 10.7-3.4 3.6-2.2 4.9 1.7 1.9 2.8-2.1 28.1-13.1 34.7-15.1 5-1.5 15-6.5 15-7.5 0-1.5-2.9-1.1-10 1.6zM193.5 254c-.3.5 1.3 3.1 3.7 5.7 2.4 2.7 6.9 8.2 10 12.3 3.1 4.1 9 11.4 13 16.1 4 4.8 11.6 13.7 16.8 19.9 5.2 6.3 10.2 12.1 11 12.9.9.9 5.6 5.9 10.5 11.1 11.3 12 11.9 12.4 13.6 10.4 1.1-1.3-.4-3.1-10.3-12.7-6.3-6.2-14-14.1-16.9-17.6-16.7-19.8-39.9-48.6-42.5-52.6-1-1.6-2.6-3.8-3.4-4.7-1.6-2-4.5-2.4-5.5-.8zM650 256.9c-10.9 4-15 6.1-15 7.8 0 1.1.5 1.3 1.8.8.9-.4 6.2-2.3 11.6-4.1 10.3-3.5 13-5 12-6.5-.7-1.3-1.9-1-10.4 2zM653.1 264.9c-7.1 2.6-10.4 5.2-6.4 5 3.4-.2 17.6-5.4 18.1-6.7.6-1.9-3.6-1.4-11.7 1.7zM193 274c0 1.1 2.5 4.8 5.5 8.2 3 3.5 8.2 9.7 11.7 13.8 10.7 13 25.9 30.1 36.3 40.9 5.5 5.7 10.8 11.3 11.8 12.3 2.1 2.2 5.2 2 5.2-.2 0-.9-4.8-6-10.6-11.5-5.9-5.5-13.9-13.6-17.7-18.1-3.9-4.5-8.6-9.6-10.3-11.5-1.8-1.9-6.8-7.9-11.2-13.4-4.4-5.5-9.8-12-11.9-14.5-2.1-2.5-4.5-5.3-5.3-6.3-2-2.3-3.5-2.2-3.5.3zM192.6 290.7c-.3.3-.6 1.2-.6 1.8 0 2.9 32.1 39.1 49.1 55.2 11.1 10.6 14.9 13.1 14.9 10 0-2-1.7-3.8-10.5-11.3-4.5-3.8-10.4-9.4-13.1-12.4-15.5-16.9-27.3-30.3-31.6-36-5.1-6.7-7-8.4-8.2-7.3zM190 311.1c0 2.9 24.6 28.7 42.5 44.4 11.3 9.9 11.4 10 12.6 8.8 1.6-1.6.4-3.1-11.1-13-9.6-8.4-22.4-21-35.8-35.6-4.9-5.3-8.2-7.2-8.2-4.6zM530.2 352.3c-1 1.3-1.3 1.9-8.9 19.2-9.1 20.5-22.3 38-37.3 49.6-10.2 7.9-11.2 8.8-10.5 9.9 1.9 3.1 8.5-1.3 21.2-14 5.1-5 10.7-11.3 12.4-13.8 6.2-9.1 13.7-21.8 16-26.7 3.5-7.9 7.1-14.8 9.1-17.7 1-1.4 1.8-3.5 1.8-4.6 0-2.4-2.5-3.6-3.8-1.9zM709 356.5c-.8.9-1 2.9-.7 4.9.6 3.6-.9 10.4-3.6 16.8-.9 2.1-5.5 7.7-10.2 12.5-7.8 7.9-9.7 11.3-6.4 11.3.6 0 4.7-3.5 9.1-7.7 8.9-8.7 12.8-15.5 15.4-27.3 1.3-5.5 1.4-7.7.5-9.6-1.2-2.8-2.3-3-4.1-.9zM129.4 357.5c-.8 2.1.2 3.3 4.9 5.7 2.3 1.1 9.8 5.8 16.7 10.3 6.9 4.5 20.4 12.5 30 17.7 20.2 11 24.3 13.3 28.7 16 3.3 2 7.4 2.1 7.9.3.2-.6-5.1-3.6-11.6-6.8-21.6-10.7-37.3-19.7-56.1-32.3-10.3-6.8-18.9-12.4-19.3-12.4-.4 0-.9.7-1.2 1.5zM720.8 365.4c-.9.8-2.2 3.9-2.8 6.8-.7 2.9-2 6.8-2.7 8.7-2.9 7-13.2 19-20.7 24.2-5.4 3.7-7.2 6.9-3.9 6.9 2.7 0 11.8-7 17-13.1 5.9-7 12.3-16.4 12.3-18.3 0-.8 1.1-3.7 2.5-6.4 2.9-5.8 2.9-6.2 1.2-8.6-1.2-1.7-1.5-1.7-2.9-.2zM128.3 372.5c-.7 1.9-1.3 1.3 7.2 6.5 14 8.5 24.2 14.3 39.4 22.2 8.6 4.5 18.8 9.8 22.6 11.8 9.7 5.1 13.5 6.3 15.1 4.9.8-.6 1.4-1.5 1.4-1.9 0-.9-4.6-3-6.6-3-2.3 0-28.6-13.3-49.9-25.3-9.6-5.4-23.1-14.3-24.1-15.8-.9-1.5-4.4-1-5.1.6z"/><path d="M533.6 376.2c-.9 1.2-1.6 2.9-1.6 3.7 0 1.4-1.2 3.4-7.6 13-12.1 18.1-38 43.3-57.9 56.4-13.6 8.9-15 10.1-14.2 12 2.8 7.2 44.4-27 68.3-56.3 3.4-4.1 7.5-9.8 9.2-12.7 1.7-2.8 4.7-7.5 6.6-10.4 2-2.9 3.5-5.7 3.3-6.3-.7-2.1-4.5-1.8-6.1.6zM727.2 379.2c-.7.7-1.2 1.8-1.2 2.6s-.9 2.6-1.9 4.1c-1.1 1.5-2.3 4-2.7 5.5-.9 3.6-10.6 14.1-17.7 18.9-3.7 2.5-6.7 3.8-9.3 4-3.1.2-4 .6-4.2 2.3-.2 1.1.4 2.7 1.3 3.4 2.1 1.7 7.9-1.4 17.7-9.6 12-9.9 21.8-23.5 21.8-30.1 0-2.5-1.9-3-3.8-1.1zM128.7 386.7c-1.8 1.8 1.5 5.4 9.8 10.7 9.6 6.2 64 32.6 67 32.6.8 0 1.7-.5 2-1 .9-1.5-1.4-4-3.5-4-1 0-7.1-2.3-13.5-5-21.2-9.1-42.8-21-53-29.2-5.9-4.7-7.5-5.5-8.8-4.1zM124.5 399c-1 1.7.1 2.6 8.8 7.3 4.5 2.4 9.8 5.3 11.7 6.4 34.2 19.1 52.5 28.3 56.1 28.3 4.5 0 3.4-3-1.6-4.5-3.5-1.1-14.4-6.1-18.5-8.5-.8-.5-8.9-4.8-17.9-9.6-9-4.7-19.3-10.7-23-13.1-3.6-2.5-8.3-5.1-10.5-5.9-4.6-1.7-4.3-1.6-5.1-.4z"/><path d="M547.9 403.2c-3.4 6.7-10.4 15.4-21.3 26.6-29.1 29.9-56.2 47.9-89.8 59.6-17.8 6.2-29.6 9.1-34.4 8.3-1.8-.3-3.6-.2-3.9.3-.9 1.5.7 4 3 4.6 4.3 1.1 20.7-3 41.5-10.4 9.8-3.5 29.9-14 41.5-21.8 19.8-13.1 42.7-34.2 58.7-54.2 5-6.1 9.7-11.2 10.4-11.2 1.7 0 1.8-3.2.2-4.8-2.1-2.1-3.7-1.3-5.9 3z"/><path d="M527.9 407.2c-.7 1.3-2.7 4-4.5 6.1-1.9 2-3.4 4.3-3.4 5.1 0 1.7-16.2 16-34 30.2-18.4 14.7-25.7 19.5-39 25.8-10.6 5-19.3 7.6-25.6 7.6-4.2 0-7.2 2-5.9 4 1 1.7 10.5 1.1 18.5-1.1 8.2-2.2 20.4-8.4 32-16.2 8.8-5.8 32.1-24.3 46.7-37 8.7-7.6 21.3-21.1 21.3-23 0-.9-3.1-3.7-4-3.7-.5 0-1.5 1-2.1 2.2zM125 411c0 1.2 6.9 5.8 16.5 11 4.4 2.3 9.1 5 10.5 6 2.8 1.9 11.6 6.7 32.4 17.7 13 6.9 16.4 8.1 17.9 6.7.9-.9-.4-3.4-1.7-3.4-3.7 0-53.7-27.2-68.1-36.9-3.1-2.2-7.5-2.8-7.5-1.1z"/><path d="M546.8 419.7c-.9 1-2.6 3.8-3.8 6.3-4.7 9.3-23.9 29.1-40.5 41.6-22.9 17.2-50.2 31.8-69.3 37-8.4 2.3-11.4 2.6-23.8 2.5-7.8 0-15.4-.5-17-1.1-1.9-.8-3-.8-3.8 0-1.9 1.9.8 4.5 5.5 5.2 8.5 1.3 27.2.9 34.9-.7 12.6-2.6 30.7-10.6 48.4-21.3 3.7-2.3 7-4.2 7.3-4.2 1.2 0 20.3-13.9 28.2-20.5 16.7-14.1 39.5-39.8 38.9-43.9-.4-2.7-3-3.2-5-.9zM125.4 422.2c-.4.6.1 1.7 1.2 2.5 5.3 3.8 17.8 11.4 25.4 15.5 17.2 9.2 20.7 11.1 27.8 15.2 11.5 6.5 12.2 6.8 13.8 6.2 2.3-.9 1.6-3.6-1.3-4.7-11.2-4.2-48.8-24.7-57.8-31.4-6.2-4.7-7.9-5.3-9.1-3.3zM132.4 472.5c-.4.8 0 2.2.7 3.1 3 3.6 43.1 20.8 47.1 20.2 3.5-.5 3.5-3.6.1-4.3-11.4-2.4-28-8.9-36.8-14.3-10.1-6.3-10.5-6.4-11.1-4.7zM290.6 474.7c-.3 1-.3 3.4-.1 5.3.9 6.3-1.3 12.7-6.1 17.8-4.8 5.1-5.1 5.7-2.9 6.6 1 .3 3.3-1 6-3.5 2.5-2.3 4.5-3.9 4.5-3.5 0 2.1-4.5 8.7-8.4 12.5-3.7 3.4-4.4 4.6-3.5 5.7 1.8 2.2 3.2 1.7 7.3-2.6 2.1-2.3 4-3.9 4.2-3.7.2.2-.1 1.9-.6 3.8-1.4 4.6-7.5 12.8-10.5 13.9-3.1 1.2-4.8 4.3-3.3 5.8 2.2 2.2 4.4 1.2 9.2-4.3 8.4-9.8 14.7-26.8 12.7-34.2-.6-2.1-1.1-5-1.1-6.4 0-1.5-.7-3.2-1.4-3.9-.8-.6-1.6-3.3-1.8-5.8-.2-3.4-.8-4.8-2-5-.9-.2-1.9.5-2.2 1.5z"/><path d="M283.7 476.6c-.4.4-.7 2.4-.7 4.5 0 2-.8 5.1-1.7 6.8-1.4 2.4-1.5 3.3-.5 4.3s1.8.7 3.9-1.5c2.3-2.3 2.8-3.5 2.8-8.4 0-4.4-.4-5.8-1.5-6.1-.9-.1-1.9 0-2.3.4zM659.1 481c-1.8 2.2-6.8 6.5-11.2 9.6-4.3 3.1-7.9 6-7.9 6.5 0 3 10.7-2.6 18-9.6 1.9-1.8 4.5-3.8 5.8-4.4 3.3-1.7 2.5-6.1-1.2-6.1-.2 0-1.7 1.8-3.5 4zM127.5 481c-1.3 2.1 2.4 4.5 20 13.1 26.2 12.6 32.5 14.6 32.5 10.5 0-1.9-2.7-3.4-6-3.4-4.2 0-30.5-12.1-39.8-18.3-4.7-3.2-5.7-3.4-6.7-1.9zM652.9 493.9c-1.7 2.2-6.3 5.9-10.1 8.2-10 6-11.5 10.3-2.3 6.5 3.9-1.7 12.9-8.2 16.3-11.9 2.4-2.6 2.7-5.7.5-6.4-.6-.2-2.6 1.4-4.4 3.6zM134.7 496.7c-2.1 2-.4 3 22.3 12.7 8.5 3.7 16 6.4 16.7 6.2 1.7-.7 1.7-3.6.1-4-13.3-3.8-32.1-11.7-35.2-14.7-1.2-1.1-3-1.2-3.9-.2zM643.8 509.1c-2.1 1.7-5.9 3.9-8.5 4.9-5.7 2.1-7.1 5-2.5 5 4.1 0 15.6-7.7 16-10.8.4-2.9-.5-2.7-5 .9zM141 510.3c0 2.4 24.2 14.7 29 14.7 3.4 0 2.2-2.8-1.7-4-5-1.6-17-7.6-20.1-10.1-2.8-2.2-7.2-2.6-7.2-.6zM639.9 518.5c-2.4 1.9-7 4.2-10.1 5.1-5.9 1.7-8.8 3.7-6.9 4.8 1.1.7 12.3-1.9 15.3-3.5 1.1-.6 1.8-.6 1.8-.1 0 1-9.9 6.2-11.6 6.2-3 0-8.4 2.3-8.4 3.5 0 1.1 1.3 1.5 5.3 1.5 5 .1 5.1.1 2.7 1.5-1.4.8-4.6 1.4-7.1 1.5-5.2 0-8.5 2.4-5.8 4.1 3 1.9 9.4.9 16.8-2.6 6.6-3.2 7.3-3.8 6.9-6-.4-1.9.3-3.1 3.3-5.5 4-3.1 4.9-5.5 2.7-6.3-1-.4-1-.7 0-1.8 1.4-1.5 1.6-4.5.3-5.3-.5-.3-2.8 1-5.2 2.9zM154.1 523.4c-1.5 1.8.1 3.4 7.5 7.6 4.3 2.5 5.8 3 6.7 2 .9-.9.7-1.5-.8-2.6-1.1-.8-4.1-3-6.8-4.9-5.4-4-5.1-3.9-6.6-2.1zM633.4 556.5c-.4 1 0 5.6 1 10.2 1.7 8 1.7 8.7 0 14-1.2 3.7-3.3 7.2-6.7 10.9-4.1 4.5-4.6 5.4-2.9 5.4 2.7 0 4.7-2.1 8.5-8.9 6.1-10.7 7-16.4 4.1-26.2-1.9-6.4-3.1-8-4-5.4zM609.6 566.6c-.9.8-1.6 2.4-1.6 3.4 0 4.4-9 11.6-13.6 10.7-1.2-.2-2.8-.1-3.5.4-1.6.9-.4 3.8 1.8 4.5 1 .3 4.2 1.5 7.1 2.6 4.8 1.8 6 1.9 10.6.9 5.7-1.3 11.2-5.6 12.2-9.7.6-2.4-2.6-7.6-5.5-8.8-1.8-.8-4.2 1.3-3.9 3.4.2 1-.6 2.7-1.6 3.9-3.4 3.8-3.7 2.2-.6-3.5 2.3-4.4 2.7-6 1.9-7.5-1.2-2.3-1.3-2.3-3.3-.3z"/><path d="M641.7 567.7c-.4.3-.7 3.7-.7 7.4 0 8.3-.7 10.3-5.9 16.3-3.9 4.5-5.2 7.6-3.1 7.6 1.2 0 10.9-11.7 12-14.5.7-1.9 1.4-11.7 1.1-16.3-.1-1.3-2.3-1.7-3.4-.5zM88 617.9c-9 3-19 8-19 9.5 0 2 3.5 2.9 5.9 1.7 2.9-1.6 3.5-1.4 6.9 1.9 2.5 2.3 4.1 3 7.3 3 4.1 0 7.8-1.4 9.1-3.4.4-.6.8-2.5.8-4.3 0-4 1.2-4.8 8-4.8 4.8 0 5.5-.2 5.5-2 0-1.4-.9-2.2-3-2.6-5.9-1.3-16-.8-21.5 1zM16 641.4c-1.8 2.2-.5 4.8 2.2 4.4 1.7-.2 2.3-1 2.3-2.8 0-2.9-2.6-3.8-4.5-1.6zM449.9 38.1c0 .2-.2 1.8-.5 3.6-.2 1.8-.8 5.2-1.4 7.5-1.2 5.2-1.3 7.8-.2 7.8.9 0 3.5-18 2.7-18.8-.3-.3-.5-.3-.6-.1zM457.9 42.7c0 .5-.3 2.6-.5 4.8-.3 2.1-.2 3.6.2 3.3 1.1-1.1 2.2-8.8 1.3-8.8-.5 0-.9.3-1 .7zM589.4 669.3c-.9 2.5.3 3.6 6.3 5.3 7.4 2.1 23.6 1.5 26.1-1 2.4-2.3.4-4-3.2-2.6-5.7 2.1-18.1 1-26.8-2.5-1.2-.5-2-.2-2.4.8z"/></svg>